<svg xmlns="http://www.w3.org/2000/svg" viewBox="0 0 78.78 69.39"><defs><style>.cls-1{fill:#4d4d4d;}</style></defs><g id="Capa_2" data-name="Capa 2"><g id="Layer_1" data-name="Layer 1"><path class="cls-1" d="M9.64,48.14a31.18,31.18,0,0,0,3.86,7.64A31.51,31.51,0,0,0,20.34,63a31.43,31.43,0,0,0,38.1,0,31.51,31.51,0,0,0,6.84-7.18,31.15,31.15,0,0,0,3.85-7.64,10.21,10.21,0,0,0,0-20.38A31.54,31.54,0,0,0,48.59,7.88a4.16,4.16,0,0,0-1.8,1.64,3.62,3.62,0,0,0-.45,1.78,27.22,27.22,0,0,1,9.73,4.75,27.74,27.74,0,0,1,9.77,14.24l.45,1.56,1.62-.17q.33,0,.66,0a6.31,6.31,0,1,1,0,12.61,4.87,4.87,0,0,1-.66,0l-1.62-.16-.45,1.56a27.74,27.74,0,0,1-9.77,14.24,27.54,27.54,0,0,1-33.37,0,27.72,27.72,0,0,1-9.76-14.24l-.46-1.56-1.62.16a4.87,4.87,0,0,1-.66,0,6.31,6.31,0,0,1,0-12.61q.33,0,.66,0l1.62.17.46-1.56A27.72,27.72,0,0,1,22.7,16.05a27.19,27.19,0,0,1,13.63-5.46q.06.72.09,1.56A2,2,0,0,0,38.37,14h.06a1.91,1.91,0,0,0,1.14-.41,1.88,1.88,0,0,0,1.19.42L41,14a2,2,0,0,0,1.66-2.2c-.47-3.36,1.47-6.13,5-7a2,2,0,0,0-1-3.78,10.65,10.65,0,0,0-6.23,4.21,10,10,0,0,0-.76,1.3h-.2C38.45,3.43,36.2.79,31.33,0a2,2,0,1,0-.61,3.86c2.9.46,4,1.7,4.49,2.6l.16.29a31.05,31.05,0,0,0-15,6.18A31.65,31.65,0,0,0,9.64,27.76a10.21,10.21,0,0,0,0,20.38Z"/><circle class="cls-1" cx="26.73" cy="36.9" r="3.12"/><circle class="cls-1" cx="52.04" cy="36.9" r="3.12"/><path class="cls-1" d="M29,46a1.95,1.95,0,0,0-3.37,2,15.87,15.87,0,0,0,27.48,0,2,2,0,0,0-3.38-2A12,12,0,0,1,29,46Z"/></g></g></svg>