<svg xmlns="http://www.w3.org/2000/svg" viewBox="0 0 77.56 77.57"><defs><style>.cls-1{fill:#4d4d4d;}</style></defs><g id="Capa_2" data-name="Capa 2"><g id="Layer_1" data-name="Layer 1"><path class="cls-1" d="M68.8,0a8.76,8.76,0,0,0-6.32,2.59A8.92,8.92,0,0,0,59.94,7.9a2.77,2.77,0,0,1-.77,1.67l-.28.29a.23.23,0,0,1-.31,0,11,11,0,0,0-15-.49,6,6,0,0,0-8.1.4l-5.3,5.3a6,6,0,0,0-1.68,5.27A9,9,0,0,0,22.19,23l-9.76,9.76h0L6.06,39.13h0L2.67,42.53a9.13,9.13,0,0,0,0,12.9L22.14,74.9a9.14,9.14,0,0,0,12.91,0L54.56,55.38a9,9,0,0,0,2.67-6.25,6.63,6.63,0,0,0,1,.08,6,6,0,0,0,4.27-1.76l5.3-5.31a6,6,0,0,0,.4-8.1,11,11,0,0,0-.48-15h0a.21.21,0,0,1,0-.31L68,18.4a2.71,2.71,0,0,1,1.65-.77,8.8,8.8,0,0,0,7.9-8.82A8.82,8.82,0,0,0,68.8,0Zm.45,13.72a6.68,6.68,0,0,0-4,1.9l-.29.28a4.16,4.16,0,0,0,0,5.88,7.05,7.05,0,0,1,.5,9.45L46.35,12.14a7.07,7.07,0,0,1,9.44.5,4.15,4.15,0,0,0,5.88,0l.29-.29a6.74,6.74,0,0,0,1.9-4,4.84,4.84,0,0,1,1.4-2.94,4.91,4.91,0,1,1,4,8.35ZM65,39.36l-5.3,5.3a2.1,2.1,0,0,1-3,0L32.91,20.83a2.11,2.11,0,0,1,0-3l5.3-5.3a2.12,2.12,0,0,1,3,0L65,36.38A2.11,2.11,0,0,1,65,39.36ZM24.93,72.12,5.46,52.65a5.19,5.19,0,0,1,0-7.34l2-2L14,49.86a2,2,0,0,0,1.39.57,2,2,0,0,0,1.39-.57,2,2,0,0,0,0-2.79l-6.54-6.54,3.58-3.59,6.55,6.55a2,2,0,0,0,2.78-2.78L16.6,34.16l3.59-3.58,6.54,6.54a2,2,0,1,0,2.79-2.78L23,27.79l2-2a5.19,5.19,0,0,1,7.34,0L51.78,45.27a5.18,5.18,0,0,1,0,7.33L32.26,72.12A5.19,5.19,0,0,1,24.93,72.12Z"/></g></g></svg>