<svg xmlns="http://www.w3.org/2000/svg" viewBox="0 0 76.63 69.64"><defs><style>.cls-1{fill:#4d4d4d;}</style></defs><g id="Capa_2" data-name="Capa 2"><g id="Layer_1" data-name="Layer 1"><path class="cls-1" d="M49,27.8a18,18,0,0,0-8.47-5.1,17.66,17.66,0,0,0-4.55-.6,4.45,4.45,0,0,0-1,2.29A2.84,2.84,0,0,0,35,25.66a14,14,0,0,1,4.54.45A14.43,14.43,0,0,1,47.06,31L48,32.15l1.29-.7.26-.13a2.71,2.71,0,0,1,3.54,1.48,2.66,2.66,0,0,1,0,2.07,2.72,2.72,0,0,1-1.47,1.47l-.27.09-1.41.42.16,1.47a14.36,14.36,0,0,1-1.86,8.73,14.24,14.24,0,0,1-15.94,6.57,14.35,14.35,0,0,1-7.48-4.87l-.92-1.16-1.29.7-.26.12a2.71,2.71,0,1,1-2.07-5l.27-.1,1.41-.42-.16-1.46a14.35,14.35,0,0,1,1.86-8.73,14.11,14.11,0,0,1,4.79-4.92l0,.06a1.77,1.77,0,0,0,1.61,1,1.82,1.82,0,0,0,.72-.15,2,2,0,0,0,.5-.34,1.72,1.72,0,0,0,.87-.25,1.75,1.75,0,0,0,.63-2.41,2.65,2.65,0,0,1,.85-3.63A1.77,1.77,0,0,0,34,19.62a1.54,1.54,0,0,0-.28-.29,1.76,1.76,0,0,0-2.2-.06,6.52,6.52,0,0,0-2.43,3.47.18.18,0,0,0-.07,0,5.9,5.9,0,0,0-5.13-.86,1.76,1.76,0,1,0,.82,3.43A3.49,3.49,0,0,1,26,25.14a17.66,17.66,0,0,0-5.4,5.77,17.83,17.83,0,0,0-2.41,9.58A6.25,6.25,0,0,0,22.9,51.94,17.9,17.9,0,0,0,31.37,57a17.53,17.53,0,0,0,11.33-.74,17.67,17.67,0,0,0,8.57-7.46,18.05,18.05,0,0,0,2.41-9.59,6.14,6.14,0,0,0,2.65-3A6.24,6.24,0,0,0,49,27.8Z"/><circle class="cls-1" cx="29.36" cy="41.96" r="1.69" transform="translate(-20.65 52.95) rotate(-67.41)"/><path class="cls-1" d="M42.7,38.29a1.69,1.69,0,1,0-2.2-.92A1.69,1.69,0,0,0,42.7,38.29Z"/><path class="cls-1" d="M30.35,45.81a1.78,1.78,0,0,0,.32,2.48,9.33,9.33,0,0,0,14.92-6.16,1.77,1.77,0,1,0-3.5-.46,5.79,5.79,0,0,1-9.26,3.82A1.77,1.77,0,0,0,30.35,45.81Z"/><path class="cls-1" d="M74.07,21.36a21.45,21.45,0,0,0-31.88-6.95,21.45,21.45,0,0,0-40.79.85,35.32,35.32,0,0,0,.2,20.33,59.6,59.6,0,0,0,8.51,17.19A90,90,0,0,0,24.92,69.24a1.79,1.79,0,0,0,1.13.4h.2a92.6,92.6,0,0,0,21.49-5.69,61,61,0,0,0,16.6-9.62A34.92,34.92,0,0,0,75.7,37.7,21.29,21.29,0,0,0,74.07,21.36ZM72.32,36.68A31.4,31.4,0,0,1,62.09,51.59a57.37,57.37,0,0,1-15.59,9A92,92,0,0,1,26.6,66,89.16,89.16,0,0,1,13,50.76,56.22,56.22,0,0,1,5,34.61a31.83,31.83,0,0,1-.21-18.33A17.92,17.92,0,0,1,39.5,17.93a1.77,1.77,0,0,0,3,.9A17.92,17.92,0,0,1,72.32,36.68Z"/></g></g></svg>