<svg xmlns="http://www.w3.org/2000/svg">   
   <symbol id="pigeon" viewBox="0 0 329.14 100.4">
      <path d="M188.77 37.82a13.45 13.45 0 0 1 8.92 2.79L176 50.92c.45-7.21 5.78-12.76 12.82-13.1zm-19-6.27a29.09 29.09 0 0 0-8.5 20.74c0 14.94 13.26 27.53 29 27.53a28.67 28.67 0 0 0 16.32-5.5c3.91-2.67 5.91-4.63 7.15-6.95a7.29 7.29 0 0 0 .37-6.2 7.85 7.85 0 0 0-4.73-4.55c-5-1.68-8.09 2-9.26 3.36l-.23.26a13.43 13.43 0 0 1-18.67 1.9l25.92-12.64c4.89-2.2 6.8-4.5 6.8-8.23 0-10.36-12.6-18.11-23.87-18.11a28.53 28.53 0 0 0-20.29 8.39zm-27.68-3.94c-5-3.47-9.09-4.21-14.23-4.21a25.58 25.58 0 0 0-17.29 7.27 26 26 0 0 0-8.23 19c0 15.44 12.71 25.8 24.57 25.8 6.3 0 10.64-1 14.59-3.55v.58c0 4-1.18 7.17-3.51 9.35a12.36 12.36 0 0 1-9.37 3.15c-3.51-.21-6.29-2.52-7.94-3.91a13.26 13.26 0 0 0-1.35-1l-.26-.16a7.86 7.86 0 0 0-4-1.34 7.63 7.63 0 0 0-5.81 2.31 7.81 7.81 0 0 0-2 6c.25 3.26 2.88 5.47 5.55 7.47a34.25 34.25 0 0 0 13.75 5.51c11.2 1.59 20.81-3.41 25-8.72 3.42-4.34 5.49-7.93 5.49-21.55v-36.5c0-3.8-.38-5-1.49-6.5h0a8 8 0 0 0-6.09-3.22 7.87 7.87 0 0 0-7.34 4.22zm-23.85 22.1a11.45 11.45 0 1 1 22.9.13 11.45 11.45 0 1 1-22.9-.13zM80.41 10a10 10 0 0 0 19.9-.23A9.68 9.68 0 0 0 90.53 0a10 10 0 0 0-10.12 10zm1.85 21.09a4.73 4.73 0 0 0 0 .52V71.7a7.9 7.9 0 0 0 15.8 0V31.09a7.91 7.91 0 0 0-15.81 0zm134.65 20.67c0 15.06 13.1 27.79 28.6 27.79a28.29 28.29 0 1 0-28.6-27.79zm14.69-.49a13.85 13.85 0 1 1 13.85 13.82 13.88 13.88 0 0 1-13.85-13.82zm61.06-24.83a8 8 0 0 0-1.75-2 4.67 4.67 0 0 0-.94-.63 7.86 7.86 0 0 0-11.7 6.83v.2.22 40.51h0v.16a7.76 7.76 0 1 0 15.52 0l.05-20.67v-2.77c0-7.43 3.32-10.88 10.42-10.88 5.09 0 9.23 4.68 9.23 10.42v1 3.14 19.85a7.81 7.81 0 0 0 15.61 0l-.09-21.11c0-8.37-.55-12.19-2.71-15.69h0c-5-8.09-12.15-12.37-20.72-12.37-3.78 0-9.91 1.63-13 3.79zM44.35 69L30.43 55c-3.27-3.19-5.15-9.78-.55-14.61 3.19-3.33 7.4-3.14 10.44-1.94a11.77 11.77 0 0 1 4.61 3.54 11.77 11.77 0 0 1 4.61-3.54A9.43 9.43 0 0 1 60 40.33a10 10 0 0 1 0 14.3L45.62 68.92v1.19h7.24c6.45 0 11.4-1.5 15.12-4.14a24.2 24.2 0 0 0 8.74-11.21 22.71 22.71 0 0 0-3.71-22.42 23.7 23.7 0 0 0-19.86-9H4.18A4.16 4.16 0 0 0 0 27.49v50.75a22.18 22.18 0 0 0 44.35 0V69z"/>
    </symbol> 
  
</svg>
