<svg xmlns="http://www.w3.org/2000/svg">  
   <symbol id="instagram" viewBox="0 0 511 511.9">
      <g><path d="m510.949219 150.5c-1.199219-27.199219-5.597657-45.898438-11.898438-62.101562-6.5-17.199219-16.5-32.597657-29.601562-45.398438-12.800781-13-28.300781-23.101562-45.300781-29.5-16.296876-6.300781-34.898438-10.699219-62.097657-11.898438-27.402343-1.300781-36.101562-1.601562-105.601562-1.601562s-78.199219.300781-105.5 1.5c-27.199219 1.199219-45.898438 5.601562-62.097657 11.898438-17.203124 6.5-32.601562 16.5-45.402343 29.601562-13 12.800781-23.097657 28.300781-29.5 45.300781-6.300781 16.300781-10.699219 34.898438-11.898438 62.097657-1.300781 27.402343-1.601562 36.101562-1.601562 105.601562s.300781 78.199219 1.5 105.5c1.199219 27.199219 5.601562 45.898438 11.902343 62.101562 6.5 17.199219 16.597657 32.597657 29.597657 45.398438 12.800781 13 28.300781 23.101562 45.300781 29.5 16.300781 6.300781 34.898438 10.699219 62.101562 11.898438 27.296876 1.203124 36 1.5 105.5 1.5s78.199219-.296876 105.5-1.5c27.199219-1.199219 45.898438-5.597657 62.097657-11.898438 34.402343-13.300781 61.601562-40.5 74.902343-74.898438 6.296876-16.300781 10.699219-34.902343 11.898438-62.101562 1.199219-27.300781 1.5-36 1.5-105.5s-.101562-78.199219-1.300781-105.5zm-46.097657 209c-1.101562 25-5.300781 38.5-8.800781 47.5-8.601562 22.300781-26.300781 40-48.601562 48.601562-9 3.5-22.597657 7.699219-47.5 8.796876-27 1.203124-35.097657 1.5-103.398438 1.5s-76.5-.296876-103.402343-1.5c-25-1.097657-38.5-5.296876-47.5-8.796876-11.097657-4.101562-21.199219-10.601562-29.398438-19.101562-8.5-8.300781-15-18.300781-19.101562-29.398438-3.5-9-7.699219-22.601562-8.796876-47.5-1.203124-27-1.5-35.101562-1.5-103.402343s.296876-76.5 1.5-103.398438c1.097657-25 5.296876-38.5 8.796876-47.5 4.101562-11.101562 10.601562-21.199219 19.203124-29.402343 8.296876-8.5 18.296876-15 29.398438-19.097657 9-3.5 22.601562-7.699219 47.5-8.800781 27-1.199219 35.101562-1.5 103.398438-1.5 68.402343 0 76.5.300781 103.402343 1.5 25 1.101562 38.5 5.300781 47.5 8.800781 11.097657 4.097657 21.199219 10.597657 29.398438 19.097657 8.5 8.300781 15 18.300781 19.101562 29.402343 3.5 9 7.699219 22.597657 8.800781 47.5 1.199219 27 1.5 35.097657 1.5 103.398438s-.300781 76.300781-1.5 103.300781zm0 0" data-original="#000000" class="active-path" data-old_color="#000000" fill="#61c5d3"/><path d="m256.449219 124.5c-72.597657 0-131.5 58.898438-131.5 131.5s58.902343 131.5 131.5 131.5c72.601562 0 131.5-58.898438 131.5-131.5s-58.898438-131.5-131.5-131.5zm0 216.800781c-47.097657 0-85.300781-38.199219-85.300781-85.300781s38.203124-85.300781 85.300781-85.300781c47.101562 0 85.300781 38.199219 85.300781 85.300781s-38.199219 85.300781-85.300781 85.300781zm0 0" data-original="#000000" class="active-path" data-old_color="#000000" fill="#61c5d3"/><path d="m423.851562 119.300781c0 16.953125-13.746093 30.699219-30.703124 30.699219-16.953126 0-30.699219-13.746094-30.699219-30.699219 0-16.957031 13.746093-30.699219 30.699219-30.699219 16.957031 0 30.703124 13.742188 30.703124 30.699219zm0 0" data-original="#000000" class="active-path" data-old_color="#000000" fill="#61c5d3"/></g>
   </symbol>  
   <symbol id="facebook" viewBox="0 0 24 24">
      <path d="M15.997 3.985h2.19V.17C17.8.117 16.5 0 14.996 0c-3.16 0-5.323 1.987-5.323 5.64V9H6.187v4.266h3.486V24h4.274V13.267h3.345L17.823 9h-3.877v-2.94c.001-1.233.333-2.077 2.05-2.077z" fill="#61c5d3"/>
   </symbol> 
   <symbol id="cart" viewBox="0 0 512 512">
      <path d="M458.7 422.2l-22.9-288.1c-1.4-18.6-17.1-33.1-35.7-33.1H355v-2c0-54.6-44.4-99-99-99s-99 44.4-99 99v2h-45.2c-18.6 0-34.3 14.5-35.7 33.1L53.3 422.3c-1.8 23.1 6.2 46 22 63s38 26.7 61.2 26.7h239.2c23.1 0 45.4-9.7 61.2-26.7 15.6-17 23.6-40 21.8-63.1zM187 99c0-38 30.9-69 69-69s69 30.9 69 69v2H187v-2zm227.8 365.9c-10.2 11-24.1 17.1-39.2 17.1H136.4c-15 0-28.9-6.1-39.2-17.1-10.2-11-15.2-25.4-14.1-40.3L106 136.4c.2-3 2.8-5.4 5.8-5.4H157v36.9a14.98 14.98 0 1 0 30 0V131h138v36.9a14.98 14.98 0 1 0 30 0V131h45.2c3 0 5.6 2.4 5.8 5.4l22.9 288.1c1.1 15-3.9 29.4-14.1 40.4z"/>
   </symbol> 
   <symbol id="close"  viewBox="0 0 50 50">  
      <path fill="#231F20" d="M9.016,40.837c0.195,0.195,0.451,0.292,0.707,0.292c0.256,0,0.512-0.098,0.708-0.293l14.292-14.309 l14.292,14.309c0.195,0.196,0.451,0.293,0.708,0.293c0.256,0,0.512-0.098,0.707-0.292c0.391-0.39,0.391-1.023,0.001-1.414 L26.153,25.129L40.43,10.836c0.39-0.391,0.39-1.024-0.001-1.414c-0.392-0.391-1.024-0.391-1.414,0.001L24.722,23.732L10.43,9.423 c-0.391-0.391-1.024-0.391-1.414-0.001c-0.391,0.39-0.391,1.023-0.001,1.414l14.276,14.293L9.015,39.423 C8.625,39.813,8.625,40.447,9.016,40.837z"/>
   </symbol> 
   <symbol id="calendar" viewBox="0 0 512 512">
      <circle cx="386" cy="210" r="20"/><path d="M432 40h-26V20c0-11.046-8.954-20-20-20s-20 8.954-20 20v20h-91V20c0-11.046-8.954-20-20-20s-20 8.954-20 20v20h-90V20c0-11.046-8.954-20-20-20s-20 8.954-20 20v20H80C35.888 40 0 75.888 0 120v312c0 44.112 35.888 80 80 80h153c11.046 0 20-8.954 20-20s-8.954-20-20-20H80c-22.056 0-40-17.944-40-40V120c0-22.056 17.944-40 40-40h25v20c0 11.046 8.954 20 20 20s20-8.954 20-20V80h90v20c0 11.046 8.954 20 20 20s20-8.954 20-20V80h91v20c0 11.046 8.954 20 20 20s20-8.954 20-20V80h26c22.056 0 40 17.944 40 40v114c0 11.046 8.954 20 20 20s20-8.954 20-20V120c0-44.112-35.888-80-80-80zm-41 230c-66.72 0-121 54.28-121 121s54.28 121 121 121 121-54.28 121-121-54.28-121-121-121zm0 202c-44.663 0-81-36.336-81-81s36.337-81 81-81 81 36.336 81 81-36.337 81-81 81zm29-101h-9v-21c0-11.046-8.954-20-20-20s-20 8.954-20 20v41c0 11.046 8.954 20 20 20h29c11.046 0 20-8.954 20-20s-8.954-20-20-20z"/><circle cx="299" cy="210" r="20"/><circle cx="212" cy="297" r="20"/><circle cx="125" cy="210" r="20"/><circle cx="125" cy="297" r="20"/><circle cx="125" cy="384" r="20"/><circle cx="212" cy="384" r="20"/><circle cx="212" cy="210" r="20"/>
   </symbol>   
   <symbol id="live" viewBox="0 0 24 24">
      <g ><path d="M14,12c0,1.1-0.9,2-2,2s-2-0.9-2-2s0.9-2,2-2S14,10.9,14,12z M8.48,8.45L7.77,7.75C6.68,8.83,6,10.34,6,12 s0.68,3.17,1.77,4.25l0.71-0.71C7.57,14.64,7,13.39,7,12S7.57,9.36,8.48,8.45z M16.23,7.75l-0.71,0.71C16.43,9.36,17,10.61,17,12 s-0.57,2.64-1.48,3.55l0.71,0.71C17.32,15.17,18,13.66,18,12S17.32,8.83,16.23,7.75z M5.65,5.63L4.95,4.92C3.13,6.73,2,9.24,2,12 s1.13,5.27,2.95,7.08l0.71-0.71C4.02,16.74,3,14.49,3,12S4.02,7.26,5.65,5.63z M19.05,4.92l-0.71,0.71C19.98,7.26,21,9.51,21,12 s-1.02,4.74-2.65,6.37l0.71,0.71C20.87,17.27,22,14.76,22,12S20.87,6.73,19.05,4.92z"  ></path></g>   
   </symbol>  
   <symbol id="list" viewBox="0 0 428.4 428.4">
     <circle cx="94" cy="214.2" r="57.5"/><path d="M381.4 172.4H177.6c-5.8 0-10.4 4.7-10.4 10.4s4.7 10.4 10.4 10.4h203.8c5.8 0 10.4-4.7 10.4-10.4S387.2 172.4 381.4 172.4z"/><path d="M177.6 256h109.7c5.8 0 10.4-4.7 10.4-10.4s-4.7-10.4-10.4-10.4H177.6c-5.8 0-10.4 4.7-10.4 10.4S171.9 256 177.6 256z"/><circle cx="94" cy="57.5" r="57.5"/><path d="M177.6 36.6h203.8c5.8 0 10.4-4.7 10.4-10.4 0-5.8-4.7-10.4-10.4-10.4H177.6c-5.8 0-10.4 4.7-10.4 10.4C167.2 31.9 171.9 36.6 177.6 36.6z"/><path d="M177.6 99.3h109.7c5.8 0 10.4-4.7 10.4-10.4s-4.7-10.4-10.4-10.4H177.6c-5.8 0-10.4 4.7-10.4 10.4S171.9 99.3 177.6 99.3z"/><circle cx="94" cy="370.9" r="57.5"/><path d="M381.4 329.1H177.6c-5.8 0-10.4 4.7-10.4 10.4s4.7 10.4 10.4 10.4h203.8c5.8 0 10.4-4.7 10.4-10.4S387.2 329.1 381.4 329.1z"/><path d="M287.3 391.8H177.6c-5.8 0-10.4 4.7-10.4 10.4s4.7 10.4 10.4 10.4h109.7c5.8 0 10.4-4.7 10.4-10.4S293.1 391.8 287.3 391.8z"/>
    </symbol> 
   <symbol id="download" viewBox="0 0 512 512">
     <path d="M382.56 233.376A15.96 15.96 0 0 0 368 224h-64V16a16.01 16.01 0 0 0-16-16h-64a16.01 16.01 0 0 0-16 16v208h-64c-6.272 0-11.968 3.68-14.56 9.376-2.624 5.728-1.6 12.416 2.528 17.152l112 128c3.04 3.488 7.424 5.472 12.032 5.472s8.992-2.016 12.032-5.472l112-128c4.16-4.704 5.12-11.424 2.528-17.152zM432 352v96H80v-96H16v128c0 17.696 14.336 32 32 32h416c17.696 0 32-14.304 32-32V352h-64z"/>
   </symbol>
   <symbol id="check" viewBox="0 0 24 24">
      <path d="M12,2C6.5,2,2,6.5,2,12s4.5,10,10,10s10-4.5,10-10C22,6.5,17.5,2,12,2z M16.2,10.3l-4.8,4.8c-0.4,0.4-1,0.4-1.4,0l0,0l-2.2-2.2c-0.4-0.4-0.4-1,0-1.4c0.4-0.4,1-0.4,1.4,0c0,0,0,0,0,0l1.5,1.5l4.1-4.1c0.4-0.4,1-0.4,1.4,0C16.6,9.3,16.6,9.9,16.2,10.3z"/>
   </symbol>
     <symbol id="down" viewBox="0 0 24 24">
        <path d="M3.8 5.6l8.3 8.3 8.3-8.3c.8-.8 2.2-.8 3 0s.8 2.2 0 3l-9.8 9.8c-.8.8-2.2.8-3 0L.8 8.6a2.18 2.18 0 0 1 0-3 2.18 2.18 0 0 1 3 0z" fill-rule="evenodd" />
   </symbol>
   <symbol id="diplomas" viewBox="0 0 24 24">
      <path d="M18.2 21.8c-.1.2-.2.3-.4.3l-2.1.3-1 1.3a.76.76 0 0 1-.4.2c-.2 0-.3-.1-.5-.2L12 21.6c.5 0 .9-.1 1.3-.4 1 0 1.9-.5 2.4-1.4a2.41 2.41 0 0 0 1-1l1.4 2.3c.2.3.2.5.1.7zM8.2 20h0a2.41 2.41 0 0 1-1-1l-1.4 2.3c-.1.2-.1.4 0 .5.1.2.2.3.4.3l2.1.3 1 1.3c.1.2.2.3.4.3s.3-.1.5-.2l1.8-2.1c-.5 0-.9-.1-1.3-.4-1.1 0-2-.5-2.5-1.3zm5 .6a2.11 2.11 0 0 1-2.4 0c-.9.1-1.7-.4-2-1.2-.8-.4-1.2-1.2-1.2-2-.5-.7-.5-1.6 0-2.4-.1-.9.4-1.7 1.2-2 .4-.8 1.2-1.2 2-1.2a2.11 2.11 0 0 1 2.4 0c.9-.1 1.7.4 2 1.2.8.4 1.2 1.2 1.2 2 .5.7.5 1.6 0 2.4.1.9-.4 1.7-1.2 2-.4.8-1.2 1.3-2 1.2zm1.7-4.4c0-1.6-1.3-2.9-2.9-2.9s-2.9 1.3-2.9 2.9 1.3 2.9 2.9 2.9c1.6-.1 2.9-1.3 2.9-2.9zM12 14.5c-.9 0-1.7.8-1.7 1.7s.8 1.7 1.7 1.7 1.7-.8 1.7-1.7c0-1-.8-1.7-1.7-1.7zM22.7 0c.7 0 1.3.6 1.3 1.3v15.2c0 .7-.6 1.3-1.3 1.3h-4.2a.65.65 0 0 1-.6-.6.65.65 0 0 1 .6-.6h4.2c.1 0 .2-.1.2-.2V3.7c-3.4-.8-8.4.1-12.5.9-3.2.6-6.2 1.3-9.3.3v11.7c0 .1.1.2.2.2h4.2a.65.65 0 0 1 .6.6.65.65 0 0 1-.6.6H1.3C.6 18 0 17.4 0 16.7V1.3C0 .6.6 0 1.3 0h21.4 0zm.2 2.6V1.3c0-.1-.1-.2-.2-.2H1.3c-.1 0-.2.1-.2.2v2.4c2.8 1.1 6.3.3 9-.2 4.1-.8 9.1-1.7 12.8-.9zM3.2 8c-.3 0-.5-.3-.5-.6a.65.65 0 0 1 .6-.6h17.5a.65.65 0 0 1 .6.6.65.65 0 0 1-.6.6H3.2h0zm18.1 2.5c0 .2-.1.3-.2.4 0 .1-.2.1-.3.1H15a.65.65 0 0 1-.6-.6.65.65 0 0 1 .6-.6h5.7c.2 0 .3.1.4.2s.2.3.2.5h0zM9 9.9a.65.65 0 0 1 .6.6c-.1.3-.3.5-.6.5H3.2a.65.65 0 0 1-.6-.6.65.65 0 0 1 .6-.6l5.8.1h0z"/>
   </symbol>
   <symbol id="calendarandhour" viewBox="0 0 122.88 120.06">
      <path d="M69.66 4.05c0-2.23 2.2-4.05 4.94-4.05s4.94 1.81 4.94 4.05v17.72c0 2.23-2.2 4.05-4.94 4.05s-4.94-1.81-4.94-4.05V4.05h0zm21.71 52.98c4.26 0 8.33.85 12.05 2.39a31.51 31.51 0 0 1 10.24 6.84 31.68 31.68 0 0 1 6.84 10.23c1.54 3.72 2.39 7.79 2.39 12.05s-.85 8.33-2.39 12.05a31.51 31.51 0 0 1-6.84 10.24 31.68 31.68 0 0 1-10.23 6.84c-3.72 1.54-7.79 2.39-12.05 2.39s-8.33-.85-12.05-2.39a31.51 31.51 0 0 1-10.24-6.84c-2.9-2.9-5.24-6.38-6.84-10.24-1.54-3.72-2.39-7.79-2.39-12.05s.85-8.33 2.39-12.05a31.51 31.51 0 0 1 6.84-10.24 31.68 31.68 0 0 1 10.23-6.84c3.72-1.53 7.78-2.38 12.05-2.38h0zm-2.36 18.34a2.75 2.75 0 0 1 .81-1.95h0 0c.5-.5 1.19-.81 1.96-.81s1.46.31 1.96.81.81 1.19.81 1.96v14.74l11.02 6.54.09.06a2.69 2.69 0 0 1 1.17 1.63c.17.68.09 1.42-.28 2.06l-.02.03a.36.36 0 0 1-.07.1c-.39.6-.98 1-1.62 1.16-.68.17-1.42.09-2.06-.28l-12.32-7.29a2.85 2.85 0 0 1-1.05-.99 2.71 2.71 0 0 1-.41-1.43h0l.01-16.34h0 0zm20.74-5.21c-2.4-2.4-5.26-4.33-8.43-5.64-3.06-1.27-6.42-1.96-9.95-1.96s-6.89.7-9.95 1.96c-3.17 1.31-6.03 3.24-8.43 5.64s-4.33 5.26-5.64 8.43c-1.27 3.06-1.96 6.42-1.96 9.95s.7 6.89 1.96 9.95c1.31 3.17 3.24 6.03 5.64 8.43s5.26 4.33 8.43 5.64c3.06 1.27 6.42 1.96 9.95 1.96s6.89-.7 9.95-1.96c3.17-1.31 6.03-3.24 8.43-5.64a25.89 25.89 0 0 0 7.61-18.38c0-3.53-.7-6.89-1.96-9.95a26.14 26.14 0 0 0-5.65-8.43h0zm-96.3-12.8c-.28 0-.53-1.23-.53-2.74s.22-2.73.53-2.73h13.48c.28 0 .53 1.23.53 2.73 0 1.51-.22 2.74-.53 2.74H13.45h0zm21.49 0c-.28 0-.53-1.23-.53-2.74s.22-2.73.53-2.73h13.48c.28 0 .53 1.23.53 2.73 0 1.51-.22 2.74-.53 2.74H34.94h0zm21.49 0c-.28 0-.53-1.23-.53-2.74s.22-2.73.53-2.73h13.48c.28 0 .53 1.22.53 2.72a40.71 40.71 0 0 0-3.89 2.75H56.43h0zM13.48 73.04c-.28 0-.53-1.23-.53-2.74s.22-2.74.53-2.74h13.48c.28 0 .53 1.23.53 2.74s-.22 2.74-.53 2.74H13.48h0zm21.49 0c-.28 0-.53-1.23-.53-2.74s.22-2.74.53-2.74h13.48c.28 0 .53 1.23.53 2.74s-.22 2.74-.53 2.74H34.97h0zM13.51 88.73c-.28 0-.53-1.23-.53-2.74s.22-2.74.53-2.74h13.48c.28 0 .53 1.23.53 2.74s-.22 2.74-.53 2.74H13.51h0zm21.49 0c-.28 0-.53-1.23-.53-2.74s.22-2.74.53-2.74h13.48c.28 0 .53 1.23.53 2.74s-.22 2.74-.53 2.74H35h0zM25.29 4.05c0-2.23 2.2-4.05 4.94-4.05s4.94 1.81 4.94 4.05v17.72c0 2.23-2.21 4.05-4.94 4.05-2.74 0-4.94-1.81-4.94-4.05V4.05h0zM5.44 38.74h94.08v-20.4a2.46 2.46 0 0 0-.73-1.76c-.45-.45-1.09-.73-1.76-.73h-9.02c-1.51 0-2.74-1.23-2.74-2.74s1.23-2.74 2.74-2.74h9.02c2.21 0 4.19.89 5.64 2.34s2.34 3.43 2.34 5.64v32.39a41.22 41.22 0 0 0-5.55-1.49v-5.06h.06H5.44v52.83a2.46 2.46 0 0 0 .73 1.76c.45.45 1.09.73 1.76.73h44.71c.51 1.9 1.15 3.75 1.92 5.53H7.98c-2.2 0-4.19-.89-5.64-2.34C.89 101.26 0 99.28 0 97.07V18.36c0-2.2.89-4.19 2.34-5.64s3.43-2.34 5.64-2.34h9.63c1.51 0 2.74 1.23 2.74 2.74s-1.23 2.74-2.74 2.74H7.98a2.46 2.46 0 0 0-1.76.73c-.45.45-.73 1.09-.73 1.76v20.4h-.05v-.01zm37.63-22.89c-1.51 0-2.74-1.23-2.74-2.74s1.23-2.74 2.74-2.74h18.36c1.51 0 2.74 1.23 2.74 2.74s-1.23 2.74-2.74 2.74H43.07h0z"/>
   </symbol>
   <symbol id="whatsapp" viewBox="0 0 24 24">
         <path d="M 12.011719 2 C 6.5057187 2 2.0234844 6.478375 2.0214844 11.984375 C 2.0204844 13.744375 2.4814687 15.462563 3.3554688 16.976562 L 2 22 L 7.2324219 20.763672 C 8.6914219 21.559672 10.333859 21.977516 12.005859 21.978516 L 12.009766 21.978516 C 17.514766 21.978516 21.995047 17.499141 21.998047 11.994141 C 22.000047 9.3251406 20.962172 6.8157344 19.076172 4.9277344 C 17.190172 3.0407344 14.683719 2.001 12.011719 2 z M 12.009766 4 C 14.145766 4.001 16.153109 4.8337969 17.662109 6.3417969 C 19.171109 7.8517969 20.000047 9.8581875 19.998047 11.992188 C 19.996047 16.396187 16.413812 19.978516 12.007812 19.978516 C 10.674812 19.977516 9.3544062 19.642812 8.1914062 19.007812 L 7.5175781 18.640625 L 6.7734375 18.816406 L 4.8046875 19.28125 L 5.2851562 17.496094 L 5.5019531 16.695312 L 5.0878906 15.976562 C 4.3898906 14.768562 4.0204844 13.387375 4.0214844 11.984375 C 4.0234844 7.582375 7.6067656 4 12.009766 4 z M 8.4765625 7.375 C 8.3095625 7.375 8.0395469 7.4375 7.8105469 7.6875 C 7.5815469 7.9365 6.9355469 8.5395781 6.9355469 9.7675781 C 6.9355469 10.995578 7.8300781 12.182609 7.9550781 12.349609 C 8.0790781 12.515609 9.68175 15.115234 12.21875 16.115234 C 14.32675 16.946234 14.754891 16.782234 15.212891 16.740234 C 15.670891 16.699234 16.690438 16.137687 16.898438 15.554688 C 17.106437 14.971687 17.106922 14.470187 17.044922 14.367188 C 16.982922 14.263188 16.816406 14.201172 16.566406 14.076172 C 16.317406 13.951172 15.090328 13.348625 14.861328 13.265625 C 14.632328 13.182625 14.464828 13.140625 14.298828 13.390625 C 14.132828 13.640625 13.655766 14.201187 13.509766 14.367188 C 13.363766 14.534188 13.21875 14.556641 12.96875 14.431641 C 12.71875 14.305641 11.914938 14.041406 10.960938 13.191406 C 10.218937 12.530406 9.7182656 11.714844 9.5722656 11.464844 C 9.4272656 11.215844 9.5585938 11.079078 9.6835938 10.955078 C 9.7955938 10.843078 9.9316406 10.663578 10.056641 10.517578 C 10.180641 10.371578 10.223641 10.267562 10.306641 10.101562 C 10.389641 9.9355625 10.347156 9.7890625 10.285156 9.6640625 C 10.223156 9.5390625 9.737625 8.3065 9.515625 7.8125 C 9.328625 7.3975 9.131125 7.3878594 8.953125 7.3808594 C 8.808125 7.3748594 8.6425625 7.375 8.4765625 7.375 z"/>    
   </symbol>
   <symbol id="phone" viewBox="0 0 24 24">
      <path d="M17.38 10.79L15.18 8.59C14.9 8.31 14.82 7.92 14.93 7.57C15.3 6.45 15.5 5.25 15.5 4C15.5 3.45 15.95 3 16.5 3H20C20.55 3 21 3.45 21 4C21 13.39 13.39 21 4 21C3.45 21 3 20.55 3 20V16.51C3 15.96 3.45 15.51 4 15.51C5.24 15.51 6.45 15.31 7.57 14.94C7.92 14.82 8.32 14.91 8.59 15.18L10.79 17.38C13.62 15.93 15.94 13.62 17.38 10.79Z"  />
   </symbol>
   <symbol id="cursos" viewBox="0 0 22 20">
      <path fill-rule="evenodd" d="M10.602 16.636a.75.75 0 0 0 .398.109.75.75 0 0 0 .398-.109l1.135-.681a8.31 8.31 0 0 1 7.36-.59c.889.356 1.857-.299 1.857-1.257V2.449c0-.578-.352-1.098-.889-1.312a10.7 10.7 0 0 0-9.48.76L11 2.125l-.382-.229a10.7 10.7 0 0 0-9.48-.76C.602 1.352.25 1.871.25 2.449v11.659c0 .958.967 1.613 1.857 1.257a8.31 8.31 0 0 1 7.36.59l1.135.681zM1.75 2.508v11.387a9.81 9.81 0 0 1 8.489.774l.011.007V3.425l-.403-.242a9.2 9.2 0 0 0-8.097-.675zm10.011 12.161l-.011.007V3.425l.403-.242a9.2 9.2 0 0 1 8.097-.675v11.387a9.81 9.81 0 0 0-8.489.774z"/><path d="M8.275 17.042a6.5 6.5 0 0 0-6.55 0l-.103.06a.75.75 0 1 0 .756 1.296l.103-.06a5 5 0 0 1 5.039 0l1.087.634a4.75 4.75 0 0 0 4.787 0l1.087-.634a5 5 0 0 1 5.039 0l.103.06a.75.75 0 1 0 .756-1.296l-.103-.06a6.5 6.5 0 0 0-6.55 0l-1.087.634a3.25 3.25 0 0 1-3.275 0l-1.087-.634z"/>     
   </symbol>
   <symbol id="diploma" viewBox="0 0 22 19">
      <path fill-rule="evenodd" clip-rule="evenodd" d="M10.6116 0.302028C10.8551 0.232733 11.1119 0.23267 11.3553 0.301762C11.8729 0.44863 12.3952 0.584853 12.9192 0.72153C15.38 1.36334 17.8793 2.01516 20.1028 3.82618L21.1267 4.66016C21.542 4.99845 21.7498 5.49918 21.75 6V13C21.75 13.4142 21.4142 13.75 21 13.75C20.5858 13.75 20.25 13.4142 20.25 13V8.05668L20.0871 8.18963C19.3166 8.81834 18.5128 9.30655 17.6888 9.70286C17.7282 9.79397 17.75 9.89444 17.75 10V14.2939C17.75 15.4272 17.0548 16.4444 15.9989 16.8561L11.9989 18.4156C11.3565 18.666 10.6435 18.666 10.0011 18.4156L6.0011 16.8561C4.94522 16.4444 4.25 15.4272 4.25 14.2939V10C4.25 9.89177 4.27292 9.7889 4.31418 9.69597C3.48383 9.29733 2.67373 8.80626 1.89724 8.17382L0.873302 7.33983C0.0426437 6.66327 0.0422074 5.33693 0.872146 4.65967L1.91292 3.81037C4.12037 2.00904 6.60193 1.36111 9.04453 0.72335C9.56971 0.586228 10.0931 0.449573 10.6116 0.302028ZM20.25 6.0006C20.25 5.91051 20.2136 5.85102 20.1794 5.8232L19.1555 4.98922C17 3.5 15.0794 2.84319 12.6399 2.20216C12.1035 2.06121 11.5519 1.91626 10.984 1.75559C10.4135 1.91742 9.8599 2.06306 9.3217 2.20465C6.9018 2.84128 4.79323 3.39601 2.86128 4.97253L1.8205 5.82184C1.78631 5.84973 1.74996 5.90931 1.75 5.9994C1.75004 6.08949 1.78643 6.14898 1.82058 6.1768L2.84453 7.01078C4.79285 8.59767 6.92065 9.15681 9.36011 9.79784C9.89653 9.9388 10.4481 10.0837 11.016 10.2444C11.5865 10.0826 12.14 9.93696 12.6782 9.79538C15.0981 9.15875 17.2068 8.60399 19.1387 7.02747L20.1795 6.17816C20.2137 6.15029 20.25 6.09054 20.25 6.0006ZM12.9555 11.2766C14.0553 10.9895 15.163 10.7003 16.25 10.3046V14.2939C16.25 14.8091 15.934 15.2714 15.454 15.4585L11.454 17.018C11.1621 17.1318 10.8379 17.1318 10.546 17.018L6.54596 15.4585C6.06601 15.2714 5.75 14.8091 5.75 14.2939V10.2961C6.84877 10.6963 7.96869 10.9884 9.08078 11.2785C9.60482 11.4151 10.1271 11.5514 10.6447 11.6982C10.8881 11.7673 11.145 11.7673 11.3884 11.698C11.9069 11.5504 12.4303 11.4138 12.9555 11.2766Z"  />
   </symbol>
    <symbol id="congresos" viewBox="0 0 24 24">
      <path d="M16.25 24h-8.5a.75.75 0 0 1-.741-.636l-1-6.5A.75.75 0 0 1 6.75 16h10.5a.75.75 0 0 1 .569.262c.142.166.205.386.172.603l-1 6.5a.75.75 0 0 1-.741.635z"/><circle cx="12" cy="4" r="4"/><path d="M23.217 13a7.27 7.27 0 0 0-3.218-5.51A1.5 1.5 0 0 0 18.5 6a1.5 1.5 0 1 0 0 3c.274 0 .527-.08.748-.207 1.407.97 2.316 2.522 2.47 4.207H19.94c-.36-2.26-2.32-4-4.7-4h-6.5c-2.37 0-4.33 1.74-4.7 4H.75c-.53 0-.874.538-.7 1l2 5.5a.76.76 0 0 0 .71.49h1.72l-.44-2.83a2.76 2.76 0 0 1 .63-2.21c.446-.535 1.235-.96 2.1-.96h10.5a2.77 2.77 0 0 1 2.09.96 2.76 2.76 0 0 1 .63 2.21L19.53 20h1.72a.76.76 0 0 0 .71-.49l2-5.5a.76.76 0 0 0-.743-1.01z"/>
   </symbol>  
    <symbol id="decorator" viewBox="0 0 68.982 18.2">
      <path  d="M34.491-.005c21.717.154,19.358,17.54,34.491,18.13.2-.1-68.786.2-68.982,0C14.74,17.633,13.757-.153,34.491-.005Z" transform="translate(0 0.006)" />   
    </symbol>  
    <symbol id="info" viewBox="0 0 24 24">
      <path  fill-rule="evenodd" stroke-linejoin="round" stroke-miterlimit="2" d="M12 1.25A10.76 10.76 0 0 0 1.25 12 10.76 10.76 0 0 0 12 22.75 10.76 10.76 0 0 0 22.75 12 10.76 10.76 0 0 0 12 1.25zM12 10c-.398 0-.779.158-1.061.439s-.439.663-.439 1.061V18c0 .398.158.779.439 1.061s.663.439 1.061.439.779-.158 1.061-.439.439-.663.439-1.061v-6.5c0-.398-.158-.779-.439-1.061S12.398 10 12 10zm0-5.75a1.75 1.75 0 1 1 0 3.5 1.75 1.75 0 1 1 0-3.5z"/>  
    </symbol>  
    <symbol id="clock" viewBox="0 0 18 18">
      <path d="M9.75 4C9.75 3.58579 9.41421 3.25 9 3.25C8.58579 3.25 8.25 3.58579 8.25 4V9C8.25 9.25859 8.38321 9.49895 8.6025 9.636L11.6025 11.511C11.9538 11.7305 12.4165 11.6238 12.636 11.2725C12.8555 10.9212 12.7488 10.4585 12.3975 10.239L9.75 8.58431V4Z"></path>
      <path d="M9 0.25C4.16751 0.25 0.25 4.16751 0.25 9C0.25 13.8325 4.16751 17.75 9 17.75C13.8325 17.75 17.75 13.8325 17.75 9C17.75 4.16751 13.8325 0.25 9 0.25ZM1.75 9C1.75 4.99594 4.99594 1.75 9 1.75C13.0041 1.75 16.25 4.99594 16.25 9C16.25 13.0041 13.0041 16.25 9 16.25C4.99594 16.25 1.75 13.0041 1.75 9Z" clip-rule="evenodd" fill-rule="evenodd"></path>
    </symbol>  
    <symbol id="in-house" viewBox="0 0 24 24">
      <path fill-rule="evenodd" clip-rule="evenodd" d="M13.5578 5.53423C12.6872 4.69887 11.3127 4.69887 10.4421 5.53423L5.81568 9.97357C5.70233 10.0823 5.62608 10.224 5.59774 10.3785C5.04361 13.4004 5.00271 16.494 5.47675 19.5295L5.58927 20.25H8.56573V14.0387C8.56573 13.6244 8.90152 13.2887 9.31573 13.2887H14.6842C15.0984 13.2887 15.4342 13.6244 15.4342 14.0387V20.25H18.4106L18.5231 19.5295C18.9972 16.494 18.9563 13.4004 18.4021 10.3785C18.3738 10.224 18.2976 10.0823 18.1842 9.97357L13.5578 5.53423ZM9.40357 4.45191C10.8545 3.05965 13.1454 3.05965 14.5963 4.45191L19.2227 8.89125C19.5633 9.21804 19.7924 9.64373 19.8775 10.108C20.4621 13.2956 20.5052 16.559 20.0052 19.7609L19.8244 20.9184C19.7496 21.3971 19.3374 21.75 18.8529 21.75H14.6842C14.2699 21.75 13.9342 21.4142 13.9342 21V14.7887H10.0657V21C10.0657 21.4142 9.72994 21.75 9.31573 21.75H5.147C4.66252 21.75 4.25023 21.3971 4.17548 20.9184L3.99472 19.7609C3.49467 16.559 3.53781 13.2956 4.12234 10.108C4.20748 9.64373 4.43656 9.21804 4.77713 8.89125L9.40357 4.45191Z" />
   </symbol>  
    <symbol id="blog" viewBox="0 0 20 20">
      <path d="M11.5 7.75a.75.75 0 0 0-.75-.75h-6a.75.75 0 1 0 0 1.5h6a.75.75 0 0 0 .75-.75zm-1 3a.75.75 0 0 0-.75-.75h-5a.75.75 0 1 0 0 1.5h5a.75.75 0 0 0 .75-.75zm.25 2.25a.75.75 0 1 1 0 1.5h-6a.75.75 0 1 1 0-1.5h6z"/><path fill-rule="evenodd" d="M4 19.75h13A2.75 2.75 0 0 0 19.75 17v-5.5a.75.75 0 0 0-.75-.75h-3.25V2.943c0-1.423-1.609-2.251-2.767-1.424l-.175.125a2.26 2.26 0 0 1-2.622-.004 3.77 3.77 0 0 0-4.372 0 2.26 2.26 0 0 1-2.622.004l-.175-.125C1.859.692.25 1.52.25 2.943V16A3.75 3.75 0 0 0 4 19.75zM6.686 2.86a2.27 2.27 0 0 1 2.628 0 3.76 3.76 0 0 0 4.366.004l.175-.125a.25.25 0 0 1 .395.203V17c0 .45.108.875.3 1.25H4A2.25 2.25 0 0 1 1.75 16V2.943a.25.25 0 0 1 .395-.203l.175.125a3.76 3.76 0 0 0 4.366-.004zM15.75 17v-4.75h2.5V17a1.25 1.25 0 1 1-2.5 0z"/>
   </symbol>  
    <symbol id="location" viewBox="0 0 18 21">
      <path d="M4.25 9a4.75 4.75 0 0 1 9.5 0 4.75 4.75 0 0 1-9.5 0zM9 5.75a3.25 3.25 0 1 0 0 6.5 3.25 3.25 0 1 0 0-6.5zM.524 7.857A8.29 8.29 0 0 1 8.784.25h.432a8.29 8.29 0 0 1 8.26 7.607c.19 2.309-.523 4.602-1.99 6.396l-4.793 5.862a2.19 2.19 0 0 1-3.386 0l-4.793-5.862C1.047 12.459.334 10.166.524 7.857zm8.26-6.107a6.79 6.79 0 0 0-6.765 6.23c-.158 1.922.435 3.83 1.656 5.323l4.793 5.862a.69.69 0 0 0 1.064 0l4.793-5.862c1.221-1.493 1.814-3.401 1.656-5.323a6.79 6.79 0 0 0-6.765-6.23h-.432z"/>   
   </symbol>  
    <symbol id="sales" viewBox="0 0 128 128">
      <path d="M95.4 57.6c1.9 2 2 5 .3 7.1-.7 1-2.1 1.2-3.1.4l-.3-.3c-1.9-1.9-2.2-4.8-.7-7 .6-1.1 2-1.5 3.1-.9l.7.7zM72.6 72.1c1.9 1.9 2.1 5 .5 7.1-.8 1-2.2 1.3-3.2.5l-.3-.3c-1.8-1.8-2.1-4.7-.7-6.8.6-1.2 1.9-1.6 3.1-1.1l.6.6h0zM6.9 38l.2-.2C12.3 32.9 18.3 29 25 26.3l3.9-1.5v-.1c.1-5.8 4.7-10.5 10.5-10.6l28.1-.4c3.7-.1 7.3 1.4 9.9 4.1l47 47.4a9.78 9.78 0 0 1 0 13.8l-31.2 31.5c-3.8 3.8-9.9 3.8-13.7 0l-47-47.4c-1.3-1.3-2.4-2.9-3.1-4.7-4.3 1.3-8.8 2-13.3 2-10 0-13.3-4.4-14.4-7.1C.6 50.7-.2 45.2 6.9 38h0zm92.2 28.5c2.3-3.5 2-8.1-.7-11.3-2.1-2.6-6-3.1-8.6-.9a4.74 4.74 0 0 0-1 1c-3.1 4-2.5 9.7 1.5 12.9l.1.1c2.8 1.9 6.6 1.3 8.5-1.5.1-.1.2-.2.2-.3zM88.5 82.2c.8 1.3 1.1 1.3 2.3.6 2-1.3 2-1.3.8-3.2L76.1 54.7c-.7-1.1-1-1.1-2.1-.5l-1.5.9a1.24 1.24 0 0 0 .1 1.7l5.6 9 10.3 16.4h0zm-20.7.7c2.6 1.9 6.1 1.4 8.1-1.1 3.4-3.9 2.5-10.6-1.8-13.3-2.4-1.5-5.6-1.1-7.5 1-3.4 3.7-3.1 9.5.6 12.9.1.2.3.3.6.5h0zM9.3 50.1c.9 2.1 10.3 4 24.7-2 4-1.7 7.8-3.8 11.3-6.4.1.1.2.3.3.4a7.94 7.94 0 0 0 11.3-.1c3.1-3.2 3.1-8.3-.1-11.4a7.94 7.94 0 0 0-11.3.1c-1.8 1.8-2.6 4.4-2.2 6.9-3.3 2.3-6.9 4.3-10.7 5.9-1.4.6-2.7 1.1-4 1.5l.2-11.4-.7.3a46.92 46.92 0 0 0-15.2 9.7l-.2.2c-3.3 3.4-3.7 5.6-3.4 6.3h0z"  />
     </symbol>  
   <symbol id="copy" viewBox="-40 0 512 512">
      <path d="M271 512H80c-44.113 0-80-35.887-80-80V161c0-44.113 35.887-80 80-80h191c44.113 0 80 35.887 80 80v271c0 44.113-35.887 80-80 80zM80 121c-22.055 0-40 17.945-40 40v271c0 22.055 17.945 40 40 40h191c22.055 0 40-17.945 40-40V161c0-22.055-17.945-40-40-40zm351 261V80c0-44.113-35.887-80-80-80H129c-11.047 0-20 8.953-20 20s8.953 20 20 20h222c22.055 0 40 17.945 40 40v302c0 11.047 8.953 20 20 20s20-8.953 20-20zm0 0"/>
    </symbol>
</svg>
