<svg xmlns="http://www.w3.org/2000/svg" viewBox="0 0 232.05 45.68" fill="#626366" xmlns:v="https://vecta.io/nano"><path d="M4.24 35.33a11.16 11.16 0 0 0 1.29 3.05 6.32 6.32 0 0 0 2 2 8.61 8.61 0 0 0 3 1.13 21 21 0 0 0 4.06.35c3.47 0 6.15-.77 8-2.3A8 8 0 0 0 25.36 33a7.8 7.8 0 0 0-1.92-5.55 12.93 12.93 0 0 0-6.13-3.23l-5.84-1.62a15.8 15.8 0 0 1-7.29-3.84 9 9 0 0 1-2.33-6.45v-.23a9.65 9.65 0 0 1 3.62-8q3.6-2.88 10-2.88A18.18 18.18 0 0 1 22 2.3a9 9 0 0 1 4.21 3.11 10.61 10.61 0 0 1 1.29 2.47 7.23 7.23 0 0 1 .53 2.41.9.9 0 0 1-.19.69 1 1 0 0 1-.69.18h-1.1a1.34 1.34 0 0 1-.72-.12c-.11-.07-.2-.31-.29-.69a8.47 8.47 0 0 0-3.14-5.06c-1.47-1-3.62-1.51-6.47-1.51-3.4 0-6 .71-7.77 2.12A7.45 7.45 0 0 0 5 12.09a6.87 6.87 0 0 0 1.8 5c1.2 1.25 3.26 2.26 6.2 3.08l5.84 1.57a14.35 14.35 0 0 1 7.17 4 10.14 10.14 0 0 1 2.45 7V33a10.24 10.24 0 0 1-3.71 8.45q-3.7 3-10.37 3-8 0-11.31-4.25a8.7 8.7 0 0 1-1.35-2.47 7 7 0 0 1-.54-2.41c0-.54.3-.81.88-.81h1.17a1.43 1.43 0 0 1 .7.12c.12.08.23.37.31.7zM58.42 41q3.33-3.31 3.33-9.59v-5.66q0-6.34-3.24-9.62-3.24-3.28-9.51-3.28-6.35 0-9.68 3.31-3.33 3.31-3.32 9.59v5.69q0 6.33 3.24 9.62 3.24 3.29 9.52 3.28 6.32 0 9.66-3.34zm-19.3-9.88V26q0-10.75 9.74-10.76 9.74-.01 9.75 10.76v5.11q0 10.76-9.75 10.75-9.75-.01-9.74-10.71zM83.59 2.15c.59 0 .88.27.88.82v.81c0 .54-.29.81-.88.81h-1.88c-2.06 0-3.52.44-4.4 1.31S76 8.23 76 10.29v3.37h6.4c.58 0 .88.27.88.81v.81c0 .55-.3.82-.88.82H76v26.61c0 .55-.3.82-.88.82h-1.33c-.59 0-.88-.27-.88-.82V16.1h-4.84c-.59 0-.88-.27-.88-.82v-.81c0-.54.29-.81.88-.81h4.84v-3.43q0-8.09 8.73-8.08zm19.98 2.56H90.94c-.59 0-.88-.27-.88-.81V3c0-.55.29-.82.88-.82h28.41c.58 0 .88.27.88.82v.9c0 .54-.3.81-.88.81h-12.64v38c0 .55-.29.82-.88.82h-1.38c-.59 0-.88-.27-.88-.82zm32.08 37.02c1.76-1.76 2.65-4.3 2.65-7.62v-4.52c0-3.36-.86-5.9-2.57-7.64s-4.24-2.61-7.57-2.61-5.92.88-7.68 2.63-2.65 4.29-2.65 7.62v4.52c0 3.36.86 5.9 2.57 7.64s4.23 2.61 7.56 2.61 5.93-.88 7.69-2.63zm-15.32-7.85v-4.06q0-8.54 7.73-8.54 7.73 0 7.74 8.54v4.06q0 8.53-7.74 8.54-7.74.01-7.73-8.54zm41.8 6.46a6.14 6.14 0 0 1-3 3 11.09 11.09 0 0 1-5 1.06 8.34 8.34 0 0 1-6.13-2.17q-2.11-2.11-2.12-6.18V20.63c0-.43.23-.64.7-.64h1.05c.46 0 .7.21.7.64v15.05q0 6.65 6.19 6.65a7.4 7.4 0 0 0 5.56-2 7.94 7.94 0 0 0 2-5.77V20.63c0-.43.23-.64.69-.64h1c.47 0 .7.21.7.64v22.43c0 .44-.23.65-.7.65h-1c-.46 0-.69-.21-.69-.65zm20.07 2.08a7.85 7.85 0 0 0 4.49-1.18 5.35 5.35 0 0 0 2.25-3.39.6.6 0 0 1 .79-.65h.9c.47 0 .7.2.7.6a5 5 0 0 1-.55 2.17 6.08 6.08 0 0 1-1.4 1.94 8.49 8.49 0 0 1-3.16 1.82 13 13 0 0 1-4.17.63q-4.85 0-7.32-2.61c-1.64-1.74-2.47-4.28-2.47-7.64v-4.52c0-3.26.87-5.79 2.6-7.57s4.21-2.68 7.44-2.68a12.66 12.66 0 0 1 4.09.65 8 8 0 0 1 3 1.75 7 7 0 0 1 1.35 2 5.18 5.18 0 0 1 .5 2.15c0 .43-.23.64-.7.64h-.9a1.12 1.12 0 0 1-.57-.09 1 1 0 0 1-.22-.55c-.84-3.05-3-4.57-6.59-4.57q-7.55 0-7.54 8.58v4c0 2.84.62 5 1.87 6.42a6.94 6.94 0 0 0 5.61 2.1zm19.32-19.16a6.43 6.43 0 0 1 3-2.86 11.47 11.47 0 0 1 5.09-1.06 9.18 9.18 0 0 1 6.22 2q2.32 2 2.32 6.3v15.42c0 .44-.23.65-.7.65h-1.05c-.46 0-.7-.21-.7-.65V28c0-2.4-.55-4.11-1.67-5.13a6.78 6.78 0 0 0-4.72-1.52 7.9 7.9 0 0 0-5.79 2 7.8 7.8 0 0 0-2 5.77v13.94c0 .44-.24.65-.7.65h-1c-.47 0-.7-.21-.7-.65v-41c0-.43.23-.65.7-.65h1c.46 0 .7.22.7.65z" stroke="#626366" stroke-miterlimit="10" stroke-width="2.44"/><path d="M220 8.81V2.32h-2a.35.35 0 0 1-.27-.08.44.44 0 0 1-.06-.28v-.5a.5.5 0 0 1 .06-.29s.13-.07.27-.07h5.32c.14 0 .23 0 .27.07a.5.5 0 0 1 .06.29V2a.44.44 0 0 1-.06.28.35.35 0 0 1-.27.08h-2v6.45a.33.33 0 0 1-.08.26.44.44 0 0 1-.28.06h-.66a.5.5 0 0 1-.29-.06l-.01-.26zm9-2.02h-.64a.5.5 0 0 1-.3-.06 1 1 0 0 1-.17-.27l-1.24-2.7v5.05c0 .13 0 .22-.07.26a.5.5 0 0 1-.29.06h-.62a.5.5 0 0 1-.29-.06s-.07-.13-.07-.26V1.43c0-.14 0-.23.07-.27a.5.5 0 0 1 .29-.06h.65a.62.62 0 0 1 .32.06.58.58 0 0 1 .19.27l1.84 4 1.85-4a.58.58 0 0 1 .19-.27.62.62 0 0 1 .29-.06h.65a.48.48 0 0 1 .29.06.35.35 0 0 1 .08.27v7.38a.33.33 0 0 1-.08.26.48.48 0 0 1-.29.06h-.62a.44.44 0 0 1-.28-.06.33.33 0 0 1-.08-.26V3.76l-1.24 2.7a1 1 0 0 1-.16.27.52.52 0 0 1-.27.06z"/></svg>