<svg xmlns="http://www.w3.org/2000/svg" viewBox="0 0 829.21 658.41"><defs><style>.cls-1,.cls-4{fill:#fff;}.cls-2{fill:#ffcb4e;}.cls-3{fill:none;stroke:#a6a8ab;stroke-miterlimit:10;stroke-width:3.13px;}.cls-4{opacity:0.6;}.cls-5{fill:#a2d0dd;}.cls-6{fill:#f59899;}.cls-7{fill:#bb9cc9;}.cls-8{fill:#e89ebc;}.cls-9{fill:#00a84f;}.cls-10{fill:#fbcb50;}.cls-11{fill:#e6a0bf;}.cls-12{fill:#7db3e1;}</style></defs><g id="Capa_2" data-name="Capa 2"><g id="Layer_1" data-name="Layer 1"><rect class="cls-1" x="1.57" y="2.03" width="210.43" height="318.66" rx="20.69"/><path class="cls-2" d="M22.26,2H191.31A20.69,20.69,0,0,1,212,22.72v85.72a0,0,0,0,1,0,0H1.57a0,0,0,0,1,0,0V22.72A20.69,20.69,0,0,1,22.26,2Z"/><path class="cls-2" d="M78.23,168.4A7.22,7.22,0,0,0,81,173a10.27,10.27,0,0,0,6.11,1.55q4.53,0,6.54-1.65c1.34-1.11,2-2.85,2-5.25A6.8,6.8,0,0,0,94.05,163a11.93,11.93,0,0,0-5.32-3l-7.62-2.37A16.58,16.58,0,0,1,73,152.51a12.5,12.5,0,0,1-2.84-8.19v-.65q0-7.18,4.6-11.14t12.94-4q9.06,0,13.44,4.82a12.19,12.19,0,0,1,3,8.34,2.06,2.06,0,0,1-.46,1.55,3.07,3.07,0,0,1-1.84.39h-4.1a3,3,0,0,1-1.79-.36,2.25,2.25,0,0,1-.58-1.43q-.65-5.9-8.41-5.9T79,143.1a6,6,0,0,0,1.55,4.42c1,1,3,2,5.79,2.84L94,152.73a15.48,15.48,0,0,1,8.16,5.21,14,14,0,0,1,2.69,8.66v.94q0,7-4.53,10.75t-12.79,3.77q-9.8,0-14.31-4.53a12.57,12.57,0,0,1-3.74-9,2,2,0,0,1,.47-1.55,2.93,2.93,0,0,1,1.83-.4h4a3.14,3.14,0,0,1,1.76.36A2.39,2.39,0,0,1,78.23,168.4Z"/><path class="cls-2" d="M118.85,168.4a7.16,7.16,0,0,0,2.8,4.63,10.3,10.3,0,0,0,6.11,1.55q4.53,0,6.54-1.65c1.34-1.11,2-2.85,2-5.25a6.8,6.8,0,0,0-1.65-4.71,11.87,11.87,0,0,0-5.32-3l-7.62-2.37a16.67,16.67,0,0,1-8.16-5.11,12.49,12.49,0,0,1-2.83-8.19v-.65q0-7.18,4.59-11.14t13-4q9,0,13.44,4.82a12.24,12.24,0,0,1,3,8.34,2,2,0,0,1-.47,1.55,3.05,3.05,0,0,1-1.84.39h-4.1a3,3,0,0,1-1.79-.36,2.25,2.25,0,0,1-.58-1.43q-.64-5.9-8.41-5.9t-7.91,7.12a6,6,0,0,0,1.55,4.42c1,1,3,2,5.79,2.84l7.62,2.37a15.48,15.48,0,0,1,8.16,5.21,14,14,0,0,1,2.69,8.66v.94q0,7-4.52,10.75t-12.8,3.77q-9.78,0-14.31-4.53a12.56,12.56,0,0,1-3.73-9,2,2,0,0,1,.46-1.55,3,3,0,0,1,1.84-.4h4a3.14,3.14,0,0,1,1.76.36A2.45,2.45,0,0,1,118.85,168.4Z"/><path class="cls-1" d="M86.19,84.29q-14.56,0-19.48-11.76a22.27,22.27,0,0,1-1.49-5.35,52,52,0,0,1-.44-7.46V48.31a55.56,55.56,0,0,1,.44-7.67,23.69,23.69,0,0,1,1.49-5.57q4.92-12.19,19.48-12.2t19.48,11.76A22.27,22.27,0,0,1,107.16,40a52.1,52.1,0,0,1,.43,7.46v11.4a55.83,55.83,0,0,1-.43,7.68,23.69,23.69,0,0,1-1.49,5.57Q100.75,84.29,86.19,84.29Zm0-51.68c-3.8,0-6.48,1.09-8,3.24s-2.33,5.92-2.33,11.24v13q0,8.07,2.29,11.28t8.07,3.2q5.79,0,8.07-3.2t2.28-11.28v-13q0-8-2.33-11.24C92.67,33.7,90,32.61,86.19,32.61Z"/><path class="cls-1" d="M123.59,34.7H134V24.05a1.85,1.85,0,0,1,.38-1.37,2.43,2.43,0,0,1,1.53-.34h3.28a2.56,2.56,0,0,1,1.53.31c.26.2.38.67.38,1.4V34.7h10.38c.73,0,1.19.12,1.4.38a2.65,2.65,0,0,1,.31,1.54v3.27a2.4,2.4,0,0,1-.34,1.54,1.87,1.87,0,0,1-1.37.37H141.07V52.46c0,.73-.12,1.19-.38,1.4a2.58,2.58,0,0,1-1.53.3h-3.28a2.36,2.36,0,0,1-1.53-.34,1.84,1.84,0,0,1-.38-1.36V41.8H123.59a1.86,1.86,0,0,1-1.37-.37,2.46,2.46,0,0,1-.34-1.54V36.62a2.58,2.58,0,0,1,.31-1.54C122.39,34.82,122.86,34.7,123.59,34.7Z"/><path class="cls-1" d="M145.87,61a6.51,6.51,0,0,1,5.37,2.16A9.11,9.11,0,0,1,153,69.08V83.7a1.37,1.37,0,0,1-.29,1,1.8,1.8,0,0,1-1.13.25h-2.46a1.79,1.79,0,0,1-1.13-.25c-.2-.16-.29-.51-.29-1V69.88a5.35,5.35,0,0,0-.78-3.14,3.27,3.27,0,0,0-2.83-1.09A3.9,3.9,0,0,0,141,67a5.36,5.36,0,0,0-1.16,3.66V83.7a1.37,1.37,0,0,1-.29,1,1.84,1.84,0,0,1-1.14.25h-2.45a1.79,1.79,0,0,1-1.13-.25c-.2-.16-.29-.51-.29-1V69.88a5.35,5.35,0,0,0-.79-3.14,3.24,3.24,0,0,0-2.82-1.09A3.93,3.93,0,0,0,127.77,67a5.41,5.41,0,0,0-1.16,3.66V83.7c0,.53-.09.88-.29,1a1.79,1.79,0,0,1-1.13.25h-2.46a1.8,1.8,0,0,1-1.13-.25,1.37,1.37,0,0,1-.29-1V62.93a1.38,1.38,0,0,1,.29-1,1.88,1.88,0,0,1,1.13-.25h2.37a1.91,1.91,0,0,1,1.14.25,1.38,1.38,0,0,1,.29,1v.89A7.16,7.16,0,0,1,132.68,61a7.63,7.63,0,0,1,3.74.85,5.87,5.87,0,0,1,2.36,2.4,7,7,0,0,1,2.9-2.4A9.92,9.92,0,0,1,145.87,61Z"/><path class="cls-2" d="M110.85,207.75c-1.73-2.77-2-3.17-2.36-3.65a.75.75,0,0,0-1.28,0c-.35.48-.61.88-2.35,3.65-2.8,4.51-6.84,11.66-8.86,18.39C93.45,234.81,97.62,243,107.85,243s14.39-8.2,11.84-16.87c-2-6.73-6.06-13.88-8.84-18.39"/><rect class="cls-3" x="4.15" y="1.57" width="205.96" height="319.95" rx="20.77"/><path class="cls-2" d="M22.36,270.71l5.81,17.39a1.13,1.13,0,0,1,0,.29c0,.32-.19.47-.57.47H25.82a1,1,0,0,1-.64-.14,1.59,1.59,0,0,1-.3-.62l-1.21-3.68H16.82l-1.18,3.71a1.47,1.47,0,0,1-.3.6,1,1,0,0,1-.64.13H13c-.38,0-.57-.15-.57-.47a1.91,1.91,0,0,1,0-.29l5.89-17.39a.59.59,0,0,1,.28-.39,1.36,1.36,0,0,1,.55-.08h2.36a1.36,1.36,0,0,1,.55.08A.56.56,0,0,1,22.36,270.71Zm-2.14,3-2.54,8h5.1Z"/><path class="cls-2" d="M32.83,290.56a1.9,1.9,0,0,0,.81.68,3.48,3.48,0,0,0,1.28.19,4.1,4.1,0,0,0,1.31-.2,2.19,2.19,0,0,0,1.59-2.39v-1.31a4.47,4.47,0,0,1-3.34,1.18,5.2,5.2,0,0,1-4-1.51,6.14,6.14,0,0,1-1.38-4.3v-2.17a5.45,5.45,0,0,1,6-5.94,6.19,6.19,0,0,1,4.34,1.41,5.12,5.12,0,0,1,1.55,4v8.42a4.81,4.81,0,0,1-1.46,3.89,7.11,7.11,0,0,1-4.61,1.21,7.45,7.45,0,0,1-3.87-.85,2.57,2.57,0,0,1-1.42-2.29c0-.33.24-.49.71-.49H32a.88.88,0,0,1,.44.09A1.22,1.22,0,0,1,32.83,290.56Zm-.63-9.7v1.62q0,3.58,2.85,3.58c1.88,0,2.83-1.19,2.83-3.58v-1.62a4.08,4.08,0,0,0-.7-2.62,2.59,2.59,0,0,0-2.13-.83,2.63,2.63,0,0,0-2.16.83A4.09,4.09,0,0,0,32.2,280.86Z"/><path class="cls-2" d="M51.4,288.1v-.52a4.3,4.3,0,0,1-1.57,1.22,5,5,0,0,1-2.12.43A4,4,0,0,1,44.48,288a5.23,5.23,0,0,1-1.06-3.47v-8.57a.83.83,0,0,1,.17-.62,1.07,1.07,0,0,1,.67-.14H45.7a1,1,0,0,1,.66.14c.12.1.17.3.17.62V284a3.12,3.12,0,0,0,.47,1.85,2,2,0,0,0,1.73.64,2.4,2.4,0,0,0,1.92-.79,3.11,3.11,0,0,0,.7-2.14v-7.66c0-.32,0-.52.17-.62a1,1,0,0,1,.66-.14h1.44a1.07,1.07,0,0,1,.67.14.83.83,0,0,1,.17.62V288.1a.83.83,0,0,1-.17.62,1.15,1.15,0,0,1-.67.14H52.24a1.12,1.12,0,0,1-.67-.14C51.45,288.62,51.4,288.42,51.4,288.1Z"/><path class="cls-2" d="M56.29,293.34H54.9a.69.69,0,0,1-.52-.15.91.91,0,0,1-.13-.59v-1.12a.91.91,0,0,1,.13-.59.69.69,0,0,1,.52-.14h.87a1.57,1.57,0,0,0,1.19-.4,1.84,1.84,0,0,0,.38-1.3V275.92c0-.32,0-.52.17-.62a1,1,0,0,1,.66-.14h1.44a1.07,1.07,0,0,1,.67.14.83.83,0,0,1,.17.62v13.33a4.08,4.08,0,0,1-1.05,3.12A4.46,4.46,0,0,1,56.29,293.34Zm2.62-19.75a1.9,1.9,0,0,1-1.3-.42,1.44,1.44,0,0,1-.48-1.15v-.55a1.45,1.45,0,0,1,.48-1.17,1.94,1.94,0,0,1,1.3-.4,2,2,0,0,1,1.32.4,1.45,1.45,0,0,1,.48,1.17V272a1.44,1.44,0,0,1-.48,1.15A2,2,0,0,1,58.91,273.59Z"/><path class="cls-2" d="M73.5,282.85H65.92V283a4.59,4.59,0,0,0,.64,2.78,2.52,2.52,0,0,0,2.13.83c1.27,0,2-.46,2.33-1.36a.66.66,0,0,1,.7-.45h1.62a1.18,1.18,0,0,1,.63.13.56.56,0,0,1,.19.47,2.75,2.75,0,0,1-.33,1.17,4.45,4.45,0,0,1-.77,1.11,4.7,4.7,0,0,1-1.9,1.16,7.75,7.75,0,0,1-2.55.41,5.67,5.67,0,0,1-4.29-1.57,6.19,6.19,0,0,1-1.52-4.47v-2a6.73,6.73,0,0,1,1.52-4.7,5.54,5.54,0,0,1,4.32-1.66,5.56,5.56,0,0,1,4.25,1.54,6.42,6.42,0,0,1,1.45,4.53v1.23a.83.83,0,0,1-.16.6A1,1,0,0,1,73.5,282.85Zm-4.84-5.55a2.56,2.56,0,0,0-2,.75,3.86,3.86,0,0,0-.69,2.44h5.25a4,4,0,0,0-.6-2.42A2.29,2.29,0,0,0,68.66,277.3Z"/><path class="cls-2" d="M79.7,275.92v1.25A3.56,3.56,0,0,1,81,275.73a3.49,3.49,0,0,1,1.9-.57h.57a.72.72,0,0,1,.53.14,1,1,0,0,1,.13.59v1.41a1,1,0,0,1-.13.59.72.72,0,0,1-.53.14h-.73a2.89,2.89,0,0,0-2.17.88,3.2,3.2,0,0,0-.84,2.31v6.88a.86.86,0,0,1-.16.61,1,1,0,0,1-.68.15H77.48a1,1,0,0,1-.67-.15.85.85,0,0,1-.17-.61V275.92a.85.85,0,0,1,.17-.61,1,1,0,0,1,.67-.15h1.38a1,1,0,0,1,.68.15A.86.86,0,0,1,79.7,275.92Z"/><path class="cls-2" d="M90.89,289.23a6,6,0,0,1-4.36-1.53A5.69,5.69,0,0,1,85,283.42v-2.56a6.08,6.08,0,0,1,1.57-4.47,5.81,5.81,0,0,1,4.36-1.6,6,6,0,0,1,4.37,1.53,5.69,5.69,0,0,1,1.57,4.28v2.56a6.08,6.08,0,0,1-1.57,4.47A5.81,5.81,0,0,1,90.89,289.23Zm0-2.64q2.83,0,2.83-3.56v-2q0-3.56-2.83-3.56T88.07,281v2Q88.07,286.58,90.89,286.59Z"/><path class="cls-2" d="M110.07,281.59h-2.85v6.51a.91.91,0,0,1-.16.61,1.06,1.06,0,0,1-.68.15h-1.47a1.08,1.08,0,0,1-.68-.15.92.92,0,0,1-.15-.61V271a.87.87,0,0,1,.15-.6,1,1,0,0,1,.68-.16h5.6a6.6,6.6,0,0,1,4.54,1.31,5.29,5.29,0,0,1,1.45,4.13v.5q0,4-3.16,5l3.89,6.9a.87.87,0,0,1,.11.34c0,.28-.23.42-.68.42h-2a1.18,1.18,0,0,1-.63-.14,1.81,1.81,0,0,1-.47-.62ZM107.22,273v5.91h3.27a3,3,0,0,0,2.14-.63,2.87,2.87,0,0,0,.63-2.09v-.37a3.1,3.1,0,0,0-.62-2.18,2.91,2.91,0,0,0-2.15-.64Z"/><path class="cls-2" d="M129.32,282.85h-7.59V283a4.66,4.66,0,0,0,.64,2.78,2.55,2.55,0,0,0,2.14.83c1.27,0,2-.46,2.32-1.36a.67.67,0,0,1,.71-.45h1.62a1.18,1.18,0,0,1,.63.13.56.56,0,0,1,.18.47,2.87,2.87,0,0,1-.32,1.17,4.22,4.22,0,0,1-.78,1.11,4.66,4.66,0,0,1-1.89,1.16,7.75,7.75,0,0,1-2.55.41,5.67,5.67,0,0,1-4.29-1.57,6.19,6.19,0,0,1-1.52-4.47v-2a6.73,6.73,0,0,1,1.52-4.7,6.53,6.53,0,0,1,8.56-.12,6.37,6.37,0,0,1,1.46,4.53v1.23a.88.88,0,0,1-.16.6A1,1,0,0,1,129.32,282.85Zm-4.84-5.55a2.55,2.55,0,0,0-2,.75,3.92,3.92,0,0,0-.7,2.44H127a4,4,0,0,0-.6-2.42A2.29,2.29,0,0,0,124.48,277.3Z"/><path class="cls-2" d="M137.32,274.79a4.5,4.5,0,0,1,3.35,1.18v-5a.81.81,0,0,1,.17-.6,1,1,0,0,1,.67-.16H143a1,1,0,0,1,.68.16.87.87,0,0,1,.15.6v12.4a5.83,5.83,0,0,1-1.51,4.31,5.94,5.94,0,0,1-4.37,1.52,6.06,6.06,0,0,1-4.38-1.52,5.48,5.48,0,0,1-1.59-4.16V281a6.84,6.84,0,0,1,1.39-4.59A5,5,0,0,1,137.32,274.79ZM135.05,281v2q0,3.59,2.85,3.58t2.82-3.58v-2q0-3.62-2.82-3.61T135.05,281Z"/><path class="cls-2" d="M151.81,289.23a6,6,0,0,1-4.36-1.53,5.69,5.69,0,0,1-1.57-4.28v-2.56a6.08,6.08,0,0,1,1.57-4.47,5.81,5.81,0,0,1,4.36-1.6,6,6,0,0,1,4.37,1.53,5.69,5.69,0,0,1,1.57,4.28v2.56a6.08,6.08,0,0,1-1.57,4.47A5.81,5.81,0,0,1,151.81,289.23Zm0-2.64q2.83,0,2.83-3.56v-2q0-3.56-2.83-3.56T149,281v2Q149,286.58,151.81,286.59Z"/><path class="cls-2" d="M166.93,274.79a4,4,0,0,1,3.27,1.27,5.15,5.15,0,0,1,1.07,3.46v8.58c0,.32-.05.52-.17.62a1.11,1.11,0,0,1-.66.14H169a1.15,1.15,0,0,1-.67-.14.83.83,0,0,1-.17-.62V280a3,3,0,0,0-.48-1.85,2.09,2.09,0,0,0-1.77-.64,2.51,2.51,0,0,0-2,.79,3,3,0,0,0-.72,2.14v7.66a.83.83,0,0,1-.17.62,1.17,1.17,0,0,1-.67.14h-1.44a1.17,1.17,0,0,1-.67-.14.83.83,0,0,1-.17-.62V275.92a.83.83,0,0,1,.17-.62,1.09,1.09,0,0,1,.67-.14h1.39a1,1,0,0,1,.66.14.79.79,0,0,1,.18.62v.54a4.07,4.07,0,0,1,1.58-1.23A5.31,5.31,0,0,1,166.93,274.79Z"/><path class="cls-2" d="M178.89,274.79a4.49,4.49,0,0,1,3.34,1.18v-5a.81.81,0,0,1,.17-.6,1,1,0,0,1,.67-.16h1.44a1,1,0,0,1,.68.16.86.86,0,0,1,.16.6v12.4a5.84,5.84,0,0,1-1.52,4.31,5.92,5.92,0,0,1-4.37,1.52,6.06,6.06,0,0,1-4.38-1.52,5.47,5.47,0,0,1-1.58-4.16V281a6.84,6.84,0,0,1,1.38-4.59A5,5,0,0,1,178.89,274.79ZM176.61,281v2q0,3.59,2.85,3.58c1.88,0,2.83-1.19,2.83-3.58v-2c0-2.41-.95-3.61-2.83-3.61S176.61,278.63,176.61,281Z"/><path class="cls-2" d="M193.38,289.23A6,6,0,0,1,189,287.7a5.69,5.69,0,0,1-1.57-4.28v-2.56a6.08,6.08,0,0,1,1.57-4.47,5.81,5.81,0,0,1,4.37-1.6,6,6,0,0,1,4.36,1.53,5.69,5.69,0,0,1,1.57,4.28v2.56a6.08,6.08,0,0,1-1.57,4.47A5.81,5.81,0,0,1,193.38,289.23Zm0-2.64q2.82,0,2.82-3.56v-2q0-3.56-2.82-3.56T190.55,281v2Q190.55,286.58,193.38,286.59Z"/><rect class="cls-1" x="222.12" y="1.57" width="205.96" height="319.95" rx="20.77"/><rect class="cls-4" x="222.12" y="1.57" width="205.96" height="319.95" rx="20.77"/><path class="cls-5" d="M243.24,1.57H407.65a20.77,20.77,0,0,1,20.77,20.77v86.07a0,0,0,0,1,0,0h-206a0,0,0,0,1,0,0V22.34A20.77,20.77,0,0,1,243.24,1.57Z"/><path class="cls-5" d="M314.19,168.61a7.26,7.26,0,0,0,2.82,4.66,10.45,10.45,0,0,0,6.14,1.55c3,0,5.21-.55,6.56-1.66s2-2.87,2-5.27a6.78,6.78,0,0,0-1.66-4.73,12,12,0,0,0-5.34-3l-7.65-2.37a16.78,16.78,0,0,1-8.2-5.13,12.59,12.59,0,0,1-2.84-8.23v-.65q0-7.22,4.61-11.18t13-4q9.09,0,13.5,4.83a12.3,12.3,0,0,1,3,8.37,2,2,0,0,1-.47,1.56,3.05,3.05,0,0,1-1.84.39h-4.12a3.06,3.06,0,0,1-1.8-.36,2.26,2.26,0,0,1-.58-1.44q-.66-5.92-8.45-5.92T315,143.2a6,6,0,0,0,1.56,4.45q1.54,1.54,5.81,2.84l7.65,2.39a15.53,15.53,0,0,1,8.2,5.23,14.07,14.07,0,0,1,2.7,8.7v.94q0,7-4.55,10.78t-12.84,3.8q-9.83,0-14.37-4.55a12.61,12.61,0,0,1-3.75-9,2,2,0,0,1,.47-1.56,3,3,0,0,1,1.84-.39h4a3.12,3.12,0,0,1,1.77.36A2.36,2.36,0,0,1,314.19,168.61Z"/><path class="cls-1" d="M312.71,26.28V80.36a2.69,2.69,0,0,1-.58,2.08,3.7,3.7,0,0,1-2.25.48H305a3.7,3.7,0,0,1-2.25-.48,2.73,2.73,0,0,1-.57-2.08V33.24h-9a2.71,2.71,0,0,1-2.06-.57,3.61,3.61,0,0,1-.49-2.25V26.55a3.61,3.61,0,0,1,.49-2.25,2.7,2.7,0,0,1,2.06-.58h16.65a3.68,3.68,0,0,1,2.25.49A2.69,2.69,0,0,1,312.71,26.28Z"/><path class="cls-1" d="M331.19,34.37h10.42V23.67A1.87,1.87,0,0,1,342,22.3a2.41,2.41,0,0,1,1.54-.34h3.29a2.71,2.71,0,0,1,1.55.3,1.88,1.88,0,0,1,.37,1.41v10.7h10.43a1.84,1.84,0,0,1,1.4.38,2.58,2.58,0,0,1,.31,1.54v3.29a2.4,2.4,0,0,1-.34,1.54,1.82,1.82,0,0,1-1.37.38H348.74V52.2c0,.73-.12,1.2-.37,1.4a2.6,2.6,0,0,1-1.55.32h-3.29a2.4,2.4,0,0,1-1.54-.35,1.87,1.87,0,0,1-.38-1.37V41.5H331.19a1.81,1.81,0,0,1-1.37-.38,2.4,2.4,0,0,1-.34-1.54V36.29a2.67,2.67,0,0,1,.3-1.54A1.87,1.87,0,0,1,331.19,34.37Z"/><path class="cls-1" d="M353.57,60.79A6.52,6.52,0,0,1,359,63a9.1,9.1,0,0,1,1.77,5.93V83.56a1.43,1.43,0,0,1-.29,1.06,1.9,1.9,0,0,1-1.14.24h-2.46a1.88,1.88,0,0,1-1.14-.24,1.39,1.39,0,0,1-.29-1.06V69.69a5.39,5.39,0,0,0-.78-3.15,3.27,3.27,0,0,0-2.85-1.1,3.92,3.92,0,0,0-3.13,1.34,5.4,5.4,0,0,0-1.16,3.67V83.56a1.43,1.43,0,0,1-.29,1.06,1.94,1.94,0,0,1-1.15.24h-2.46a1.9,1.9,0,0,1-1.14-.24,1.39,1.39,0,0,1-.29-1.06V69.69a5.31,5.31,0,0,0-.79-3.15,3.22,3.22,0,0,0-2.83-1.1,4,4,0,0,0-3.14,1.34,5.46,5.46,0,0,0-1.16,3.67V83.56a1.43,1.43,0,0,1-.29,1.06,1.92,1.92,0,0,1-1.14.24h-2.47a1.92,1.92,0,0,1-1.14-.24,1.43,1.43,0,0,1-.29-1.06V62.71a1.38,1.38,0,0,1,.29-1.05,1.91,1.91,0,0,1,1.14-.25h2.37a1.93,1.93,0,0,1,1.15.25,1.38,1.38,0,0,1,.29,1.05v.89a7.24,7.24,0,0,1,6.18-2.81,7.54,7.54,0,0,1,3.75.85,5.8,5.8,0,0,1,2.37,2.41,7,7,0,0,1,2.91-2.41A9.89,9.89,0,0,1,353.57,60.79Z"/><path class="cls-5" d="M313.84,208.08c-1.74-2.79-2-3.18-2.37-3.67a.75.75,0,0,0-1.28,0c-.35.49-.62.88-2.36,3.67-2.81,4.53-6.87,11.7-8.9,18.47-2.55,8.7,1.63,16.93,11.9,16.93s14.45-8.23,11.89-16.93c-2-6.77-6.08-13.94-8.88-18.47"/><path class="cls-5" d="M342.65,208.08c-1.74-2.79-2-3.18-2.37-3.67a.74.74,0,0,0-1.27,0c-.35.49-.63.88-2.37,3.67-2.8,4.53-6.87,11.7-8.89,18.47-2.56,8.7,1.62,16.93,11.9,16.93s14.44-8.23,11.89-16.93c-2-6.77-6.09-13.94-8.89-18.47"/><rect class="cls-3" x="222.12" y="1.57" width="205.96" height="319.95" rx="20.77"/><path class="cls-5" d="M241.58,270.71l5.81,17.39a1.91,1.91,0,0,1,.05.29c0,.32-.19.47-.57.47H245a1,1,0,0,1-.64-.14,1.72,1.72,0,0,1-.31-.62l-1.2-3.68H236l-1.18,3.71a1.47,1.47,0,0,1-.3.6,1,1,0,0,1-.64.13h-1.73c-.38,0-.57-.15-.57-.47a1.13,1.13,0,0,1,0-.29l5.88-17.39a.59.59,0,0,1,.29-.39,1.33,1.33,0,0,1,.55-.08h2.36a1.36,1.36,0,0,1,.55.08A.59.59,0,0,1,241.58,270.71Zm-2.14,3-2.54,8H242Z"/><path class="cls-5" d="M252.05,290.56a1.9,1.9,0,0,0,.81.68,3.48,3.48,0,0,0,1.28.19,4.1,4.1,0,0,0,1.31-.2,2.55,2.55,0,0,0,.91-.51,2.5,2.5,0,0,0,.68-1.88v-1.31a4.5,4.5,0,0,1-3.35,1.18,5.19,5.19,0,0,1-4-1.51,6.14,6.14,0,0,1-1.38-4.3v-2.17a5.44,5.44,0,0,1,6-5.94,6.21,6.21,0,0,1,4.34,1.41,5.12,5.12,0,0,1,1.54,4v8.42a4.81,4.81,0,0,1-1.45,3.89,7.13,7.13,0,0,1-4.61,1.21,7.52,7.52,0,0,1-3.88-.85,2.58,2.58,0,0,1-1.41-2.29c0-.33.24-.49.71-.49h1.72a.92.92,0,0,1,.45.09A1.33,1.33,0,0,1,252.05,290.56Zm-.63-9.7v1.62q0,3.58,2.85,3.58t2.82-3.58v-1.62a4.09,4.09,0,0,0-.69-2.62,2.59,2.59,0,0,0-2.13-.83,2.63,2.63,0,0,0-2.16.83A4.09,4.09,0,0,0,251.42,280.86Z"/><path class="cls-5" d="M270.62,288.1v-.52a4.3,4.3,0,0,1-1.57,1.22,5,5,0,0,1-2.12.43A3.94,3.94,0,0,1,263.7,288a5.23,5.23,0,0,1-1.06-3.47v-8.57a.83.83,0,0,1,.17-.62,1.05,1.05,0,0,1,.67-.14h1.43a1.05,1.05,0,0,1,.67.14.83.83,0,0,1,.17.62V284a3.12,3.12,0,0,0,.47,1.85,2,2,0,0,0,1.73.64,2.4,2.4,0,0,0,1.92-.79,3.11,3.11,0,0,0,.69-2.14v-7.66a.83.83,0,0,1,.17-.62,1.09,1.09,0,0,1,.67-.14h1.44a1.09,1.09,0,0,1,.67.14.83.83,0,0,1,.17.62V288.1a.83.83,0,0,1-.17.62,1.17,1.17,0,0,1-.67.14h-1.39a1.11,1.11,0,0,1-.66-.14C270.67,288.62,270.62,288.42,270.62,288.1Z"/><path class="cls-5" d="M275.51,293.34h-1.39a.69.69,0,0,1-.52-.15.91.91,0,0,1-.13-.59v-1.12a.91.91,0,0,1,.13-.59.69.69,0,0,1,.52-.14H275a1.57,1.57,0,0,0,1.19-.4,1.84,1.84,0,0,0,.37-1.3V275.92a.83.83,0,0,1,.17-.62,1.09,1.09,0,0,1,.67-.14h1.44a1.09,1.09,0,0,1,.67.14.83.83,0,0,1,.17.62v13.33a4.08,4.08,0,0,1-1.05,3.12A4.46,4.46,0,0,1,275.51,293.34Zm2.61-19.75a1.89,1.89,0,0,1-1.29-.42,1.45,1.45,0,0,1-.49-1.15v-.55a1.45,1.45,0,0,1,.49-1.17,1.93,1.93,0,0,1,1.29-.4,2,2,0,0,1,1.32.4,1.42,1.42,0,0,1,.49,1.17V272a1.42,1.42,0,0,1-.49,1.15A1.94,1.94,0,0,1,278.12,273.59Z"/><path class="cls-5" d="M292.72,282.85h-7.59V283a4.66,4.66,0,0,0,.64,2.78,2.55,2.55,0,0,0,2.14.83c1.27,0,2-.46,2.32-1.36a.67.67,0,0,1,.71-.45h1.62a1.18,1.18,0,0,1,.63.13.56.56,0,0,1,.18.47,2.87,2.87,0,0,1-.32,1.17,4.22,4.22,0,0,1-.78,1.11,4.66,4.66,0,0,1-1.89,1.16,7.75,7.75,0,0,1-2.55.41,5.67,5.67,0,0,1-4.29-1.57,6.19,6.19,0,0,1-1.52-4.47v-2a6.73,6.73,0,0,1,1.52-4.7,6.53,6.53,0,0,1,8.56-.12,6.37,6.37,0,0,1,1.46,4.53v1.23a.88.88,0,0,1-.16.6A1,1,0,0,1,292.72,282.85Zm-4.84-5.55a2.55,2.55,0,0,0-2.05.75,3.92,3.92,0,0,0-.7,2.44h5.26a4,4,0,0,0-.6-2.42A2.29,2.29,0,0,0,287.88,277.3Z"/><path class="cls-5" d="M298.92,275.92v1.25a3.56,3.56,0,0,1,1.32-1.44,3.49,3.49,0,0,1,1.9-.57h.57c.26,0,.44,0,.52.14a.91.91,0,0,1,.13.59v1.41a.91.91,0,0,1-.13.59c-.08.1-.26.14-.52.14H302a2.87,2.87,0,0,0-2.17.88,3.2,3.2,0,0,0-.84,2.31v6.88a.86.86,0,0,1-.16.61,1,1,0,0,1-.68.15h-1.44a1,1,0,0,1-.66-.15.81.81,0,0,1-.17-.61V275.92a.81.81,0,0,1,.17-.61,1,1,0,0,1,.66-.15h1.39a1,1,0,0,1,.68.15A.86.86,0,0,1,298.92,275.92Z"/><path class="cls-5" d="M310.11,289.23a6,6,0,0,1-4.36-1.53,5.69,5.69,0,0,1-1.57-4.28v-2.56a6.08,6.08,0,0,1,1.57-4.47,5.81,5.81,0,0,1,4.36-1.6,6,6,0,0,1,4.37,1.53,5.69,5.69,0,0,1,1.57,4.28v2.56a6.08,6.08,0,0,1-1.57,4.47A5.81,5.81,0,0,1,310.11,289.23Zm0-2.64q2.83,0,2.83-3.56v-2q0-3.56-2.83-3.56T307.29,281v2Q307.29,286.58,310.11,286.59Z"/><path class="cls-5" d="M329.29,281.59h-2.85v6.51a.91.91,0,0,1-.16.61,1.06,1.06,0,0,1-.68.15h-1.47a1.06,1.06,0,0,1-.68-.15.92.92,0,0,1-.15-.61V271a.87.87,0,0,1,.15-.6,1,1,0,0,1,.68-.16h5.6a6.6,6.6,0,0,1,4.54,1.31,5.29,5.29,0,0,1,1.45,4.13v.5q0,4-3.16,5l3.89,6.9a.87.87,0,0,1,.11.34c0,.28-.23.42-.68.42h-2a1.18,1.18,0,0,1-.63-.14,1.81,1.81,0,0,1-.47-.62ZM326.44,273v5.91h3.26a3,3,0,0,0,2.15-.63,2.87,2.87,0,0,0,.63-2.09v-.37a3.1,3.1,0,0,0-.62-2.18,2.92,2.92,0,0,0-2.16-.64Z"/><path class="cls-5" d="M348.54,282.85H341V283a4.59,4.59,0,0,0,.64,2.78,2.54,2.54,0,0,0,2.13.83c1.28,0,2-.46,2.33-1.36a.67.67,0,0,1,.71-.45h1.62a1.18,1.18,0,0,1,.63.13.56.56,0,0,1,.18.47,2.75,2.75,0,0,1-.33,1.17,4,4,0,0,1-.77,1.11,4.73,4.73,0,0,1-1.89,1.16,7.75,7.75,0,0,1-2.55.41,5.67,5.67,0,0,1-4.29-1.57,6.15,6.15,0,0,1-1.52-4.47v-2a6.68,6.68,0,0,1,1.52-4.7,6.53,6.53,0,0,1,8.56-.12,6.37,6.37,0,0,1,1.45,4.53v1.23a.89.89,0,0,1-.15.6A1,1,0,0,1,348.54,282.85Zm-4.84-5.55a2.58,2.58,0,0,0-2.06.75,4,4,0,0,0-.69,2.44h5.26a4,4,0,0,0-.6-2.42A2.29,2.29,0,0,0,343.7,277.3Z"/><path class="cls-5" d="M356.54,274.79a4.52,4.52,0,0,1,3.35,1.18v-5a.81.81,0,0,1,.17-.6,1,1,0,0,1,.67-.16h1.43a1,1,0,0,1,.68.16.81.81,0,0,1,.16.6v12.4a5.8,5.8,0,0,1-1.52,4.31,5.9,5.9,0,0,1-4.36,1.52,6.06,6.06,0,0,1-4.38-1.52,5.48,5.48,0,0,1-1.59-4.16V281a6.79,6.79,0,0,1,1.39-4.59A5,5,0,0,1,356.54,274.79ZM354.27,281v2q0,3.59,2.85,3.58t2.82-3.58v-2q0-3.62-2.82-3.61T354.27,281Z"/><path class="cls-5" d="M371,289.23a6,6,0,0,1-4.37-1.53,5.73,5.73,0,0,1-1.57-4.28v-2.56a6.12,6.12,0,0,1,1.57-4.47,5.83,5.83,0,0,1,4.37-1.6,6,6,0,0,1,4.37,1.53A5.69,5.69,0,0,1,377,280.6v2.56a6.08,6.08,0,0,1-1.57,4.47A5.83,5.83,0,0,1,371,289.23Zm0-2.64c1.88,0,2.83-1.19,2.83-3.56v-2c0-2.37-.95-3.56-2.83-3.56s-2.82,1.19-2.82,3.56v2Q368.21,286.58,371,286.59Z"/><path class="cls-5" d="M386.15,274.79a4,4,0,0,1,3.27,1.27,5.21,5.21,0,0,1,1.07,3.46v8.58c0,.32-.05.52-.17.62a1.11,1.11,0,0,1-.66.14h-1.44a1.12,1.12,0,0,1-.67-.14.83.83,0,0,1-.17-.62V280a3,3,0,0,0-.48-1.85,2.11,2.11,0,0,0-1.77-.64,2.5,2.5,0,0,0-2,.79,3,3,0,0,0-.72,2.14v7.66a.83.83,0,0,1-.17.62,1.17,1.17,0,0,1-.67.14h-1.44a1.17,1.17,0,0,1-.67-.14.83.83,0,0,1-.17-.62V275.92a.83.83,0,0,1,.17-.62,1.09,1.09,0,0,1,.67-.14h1.39a1,1,0,0,1,.66.14c.12.1.17.3.17.62v.54a4.1,4.1,0,0,1,1.59-1.23A5.31,5.31,0,0,1,386.15,274.79Z"/><path class="cls-5" d="M398.1,274.79a4.5,4.5,0,0,1,3.35,1.18v-5a.81.81,0,0,1,.17-.6,1,1,0,0,1,.67-.16h1.44a1,1,0,0,1,.68.16.87.87,0,0,1,.15.6v12.4a5.83,5.83,0,0,1-1.51,4.31,5.94,5.94,0,0,1-4.37,1.52,6.06,6.06,0,0,1-4.38-1.52,5.48,5.48,0,0,1-1.59-4.16V281a6.84,6.84,0,0,1,1.39-4.59A5,5,0,0,1,398.1,274.79ZM395.83,281v2q0,3.59,2.85,3.58T401.5,283v-2q0-3.62-2.82-3.61T395.83,281Z"/><path class="cls-5" d="M412.59,289.23a6,6,0,0,1-4.36-1.53,5.69,5.69,0,0,1-1.57-4.28v-2.56a6.08,6.08,0,0,1,1.57-4.47,5.81,5.81,0,0,1,4.36-1.6,6,6,0,0,1,4.37,1.53,5.69,5.69,0,0,1,1.57,4.28v2.56a6.08,6.08,0,0,1-1.57,4.47A5.81,5.81,0,0,1,412.59,289.23Zm0-2.64q2.84,0,2.83-3.56v-2q0-3.56-2.83-3.56T409.77,281v2Q409.77,286.58,412.59,286.59Z"/><rect class="cls-1" x="439.31" y="1.57" width="205.96" height="319.95" rx="20.77"/><path class="cls-6" d="M460.08,1.57H624.5a20.77,20.77,0,0,1,20.77,20.77v86.07a0,0,0,0,1,0,0h-206a0,0,0,0,1,0,0V22.34A20.77,20.77,0,0,1,460.08,1.57Z"/><path class="cls-6" d="M545.41,164.11H541.3a3.21,3.21,0,0,1-1.91-.39,4.9,4.9,0,0,1-1-1.7l-8-17.25V177a2.29,2.29,0,0,1-.46,1.7,3,3,0,0,1-1.85.4h-4a2.91,2.91,0,0,1-1.83-.4,2.19,2.19,0,0,1-.48-1.7v-47.2a2.17,2.17,0,0,1,.48-1.69,2.91,2.91,0,0,1,1.83-.4h4.19a4,4,0,0,1,2,.36,4.21,4.21,0,0,1,1.23,1.73l11.77,25.34,11.83-25.34a4.12,4.12,0,0,1,1.23-1.73,3.93,3.93,0,0,1,2-.36h4.19a3,3,0,0,1,1.84.4,2.22,2.22,0,0,1,.46,1.69V177a2.24,2.24,0,0,1-.46,1.7,3,3,0,0,1-1.84.4h-4a3,3,0,0,1-1.85-.4,2.24,2.24,0,0,1-.46-1.7V144.77L548.38,162a5.2,5.2,0,0,1-1,1.7A3.24,3.24,0,0,1,545.41,164.11Z"/><path class="cls-1" d="M520,22.49q9.07,0,13.88,3.92t4.8,11.32v1.76a11.85,11.85,0,0,1-2.38,7.32,15.49,15.49,0,0,1-6.6,4.92q9.76,2.57,9.77,12.78v3.26q0,7.67-5.41,12t-14.76,4.35a32.61,32.61,0,0,1-9.91-1.36,16.51,16.51,0,0,1-6.82-3.92,12.92,12.92,0,0,1-2.83-4.45,14.57,14.57,0,0,1-1-5.33,3.06,3.06,0,0,1,.57-2.2,3.44,3.44,0,0,1,2.25-.53h5a3.89,3.89,0,0,1,2.06.39,1.85,1.85,0,0,1,.67,1.46q.61,7,9.6,7,4.57,0,7-2.07a7.34,7.34,0,0,0,2.46-5.95V65q0-8.28-9.07-8.28h-2.64a2.76,2.76,0,0,1-2.08-.57,3.7,3.7,0,0,1-.48-2.25V50.07a3.7,3.7,0,0,1,.48-2.25,2.72,2.72,0,0,1,2.08-.58h1.58q9.51,0,9.52-7.92V38.26q0-7.21-8.64-7.22c-2.88,0-5.06.59-6.56,1.76a8.56,8.56,0,0,0-2.86,5.64,2.13,2.13,0,0,1-.75,1.45,3.71,3.71,0,0,1-2,.4h-4.66a3.39,3.39,0,0,1-2.24-.53,3,3,0,0,1-.58-2.2A13,13,0,0,1,503.32,28a16.61,16.61,0,0,1,6.79-4.22A31.25,31.25,0,0,1,520,22.49Z"/><path class="cls-1" d="M556.35,34.37h10.42V23.67a1.82,1.82,0,0,1,.39-1.37,2.36,2.36,0,0,1,1.53-.34H572a2.71,2.71,0,0,1,1.55.3,1.88,1.88,0,0,1,.37,1.41v10.7h10.43c.73,0,1.2.13,1.4.38a2.56,2.56,0,0,1,.32,1.54v3.29a2.38,2.38,0,0,1-.35,1.54,1.82,1.82,0,0,1-1.37.38H573.9V52.2c0,.73-.12,1.2-.37,1.4a2.6,2.6,0,0,1-1.55.32h-3.29a2.35,2.35,0,0,1-1.53-.35,1.82,1.82,0,0,1-.39-1.37V41.5H556.35a1.81,1.81,0,0,1-1.37-.38,2.4,2.4,0,0,1-.34-1.54V36.29a2.67,2.67,0,0,1,.3-1.54A1.87,1.87,0,0,1,556.35,34.37Z"/><path class="cls-1" d="M578.72,60.79a6.55,6.55,0,0,1,5.4,2.17,9.09,9.09,0,0,1,1.76,5.93V83.56a1.39,1.39,0,0,1-.29,1.06,1.88,1.88,0,0,1-1.14.24H582a1.88,1.88,0,0,1-1.14-.24,1.39,1.39,0,0,1-.29-1.06V69.69a5.39,5.39,0,0,0-.78-3.15,3.27,3.27,0,0,0-2.85-1.1,4,4,0,0,0-3.13,1.34,5.4,5.4,0,0,0-1.16,3.67V83.56a1.43,1.43,0,0,1-.29,1.06,1.94,1.94,0,0,1-1.15.24h-2.45a1.88,1.88,0,0,1-1.14-.24,1.39,1.39,0,0,1-.29-1.06V69.69a5.38,5.38,0,0,0-.79-3.15,3.24,3.24,0,0,0-2.84-1.1,4,4,0,0,0-3.14,1.34,5.46,5.46,0,0,0-1.16,3.67V83.56a1.39,1.39,0,0,1-.29,1.06,1.9,1.9,0,0,1-1.14.24H555.5a1.88,1.88,0,0,1-1.14-.24,1.38,1.38,0,0,1-.3-1.06V62.71a1.34,1.34,0,0,1,.3-1.05,1.87,1.87,0,0,1,1.14-.25h2.37a1.89,1.89,0,0,1,1.14.25,1.34,1.34,0,0,1,.3,1.05v.89a7.22,7.22,0,0,1,6.17-2.81,7.6,7.6,0,0,1,3.76.85,5.92,5.92,0,0,1,2.37,2.41,6.9,6.9,0,0,1,2.91-2.41A9.82,9.82,0,0,1,578.72,60.79Z"/><path class="cls-6" d="M515.94,208.12c-1.74-2.78-2-3.18-2.37-3.66a.74.74,0,0,0-1.28,0c-.35.48-.62.88-2.36,3.66-2.81,4.53-6.87,11.7-8.89,18.47-2.56,8.7,1.62,16.93,11.89,16.93s14.45-8.23,11.89-16.93c-2-6.77-6.08-13.94-8.88-18.47"/><path class="cls-6" d="M545.3,208.12c-1.74-2.78-2-3.18-2.37-3.66a.74.74,0,0,0-1.28,0c-.35.48-.62.88-2.36,3.66-2.81,4.53-6.87,11.7-8.89,18.47-2.57,8.7,1.62,16.93,11.89,16.93s14.45-8.23,11.89-16.93c-2-6.77-6.08-13.94-8.88-18.47"/><path class="cls-6" d="M574.65,208.12c-1.73-2.78-2-3.18-2.37-3.66a.74.74,0,0,0-1.28,0c-.34.48-.61.88-2.36,3.66-2.81,4.53-6.87,11.7-8.89,18.47-2.56,8.7,1.62,16.93,11.9,16.93s14.44-8.23,11.88-16.93c-2-6.77-6.08-13.94-8.88-18.47"/><rect class="cls-3" x="439.31" y="1.57" width="205.96" height="319.95" rx="20.77"/><path class="cls-6" d="M467.3,270.71l5.8,17.39a1.32,1.32,0,0,1,.06.29c0,.32-.2.47-.58.47h-1.83a1,1,0,0,1-.64-.14,1.59,1.59,0,0,1-.3-.62l-1.21-3.68h-6.85l-1.18,3.71a1.47,1.47,0,0,1-.3.6,1,1,0,0,1-.64.13h-1.72c-.39,0-.58-.15-.58-.47a1.91,1.91,0,0,1,.05-.29l5.89-17.39a.57.57,0,0,1,.29-.39,1.28,1.28,0,0,1,.54-.08h2.36a1.33,1.33,0,0,1,.55.08A.59.59,0,0,1,467.3,270.71Zm-2.15,3-2.54,8h5.1Z"/><path class="cls-6" d="M477.76,290.56a1.9,1.9,0,0,0,.81.68,3.48,3.48,0,0,0,1.28.19,4.1,4.1,0,0,0,1.31-.2,2.19,2.19,0,0,0,1.59-2.39v-1.31a4.47,4.47,0,0,1-3.34,1.18,5.2,5.2,0,0,1-4-1.51,6.14,6.14,0,0,1-1.38-4.3v-2.17a5.45,5.45,0,0,1,6-5.94,6.19,6.19,0,0,1,4.34,1.41,5.12,5.12,0,0,1,1.55,4v8.42a4.81,4.81,0,0,1-1.46,3.89,7.11,7.11,0,0,1-4.61,1.21,7.45,7.45,0,0,1-3.87-.85,2.59,2.59,0,0,1-1.42-2.29c0-.33.24-.49.71-.49H477a.88.88,0,0,1,.44.09A1.22,1.22,0,0,1,477.76,290.56Zm-.63-9.7v1.62q0,3.58,2.85,3.58c1.88,0,2.83-1.19,2.83-3.58v-1.62a4.08,4.08,0,0,0-.7-2.62,2.59,2.59,0,0,0-2.13-.83,2.63,2.63,0,0,0-2.16.83A4.09,4.09,0,0,0,477.13,280.86Z"/><path class="cls-6" d="M496.33,288.1v-.52a4.3,4.3,0,0,1-1.57,1.22,5,5,0,0,1-2.12.43,4,4,0,0,1-3.23-1.27,5.23,5.23,0,0,1-1.06-3.47v-8.57a.83.83,0,0,1,.17-.62,1.07,1.07,0,0,1,.67-.14h1.44a1,1,0,0,1,.66.14c.12.1.17.3.17.62V284a3,3,0,0,0,.48,1.85,2,2,0,0,0,1.72.64,2.4,2.4,0,0,0,1.92-.79,3.07,3.07,0,0,0,.7-2.14v-7.66c0-.32.05-.52.17-.62a1,1,0,0,1,.66-.14h1.44a1.07,1.07,0,0,1,.67.14.83.83,0,0,1,.17.62V288.1a.83.83,0,0,1-.17.62,1.15,1.15,0,0,1-.67.14h-1.38a1.12,1.12,0,0,1-.67-.14A.83.83,0,0,1,496.33,288.1Z"/><path class="cls-6" d="M501.22,293.34h-1.39a.69.69,0,0,1-.52-.15.91.91,0,0,1-.13-.59v-1.12a.91.91,0,0,1,.13-.59.69.69,0,0,1,.52-.14h.87a1.56,1.56,0,0,0,1.19-.4,1.84,1.84,0,0,0,.38-1.3V275.92c0-.32.05-.52.17-.62a1,1,0,0,1,.66-.14h1.44a1.07,1.07,0,0,1,.67.14.83.83,0,0,1,.17.62v13.33a4.08,4.08,0,0,1-1.05,3.12A4.44,4.44,0,0,1,501.22,293.34Zm2.62-19.75a1.92,1.92,0,0,1-1.3-.42,1.44,1.44,0,0,1-.48-1.15v-.55a1.45,1.45,0,0,1,.48-1.17,2,2,0,0,1,1.3-.4,2,2,0,0,1,1.32.4,1.45,1.45,0,0,1,.48,1.17V272a1.44,1.44,0,0,1-.48,1.15A2,2,0,0,1,503.84,273.59Z"/><path class="cls-6" d="M518.43,282.85h-7.58V283a4.59,4.59,0,0,0,.64,2.78,2.52,2.52,0,0,0,2.13.83c1.27,0,2-.46,2.33-1.36a.66.66,0,0,1,.7-.45h1.62a1.18,1.18,0,0,1,.63.13.56.56,0,0,1,.19.47,2.75,2.75,0,0,1-.33,1.17,4.45,4.45,0,0,1-.77,1.11,4.7,4.7,0,0,1-1.9,1.16,7.75,7.75,0,0,1-2.55.41,5.67,5.67,0,0,1-4.29-1.57,6.19,6.19,0,0,1-1.52-4.47v-2a6.73,6.73,0,0,1,1.52-4.7,6.54,6.54,0,0,1,8.57-.12,6.42,6.42,0,0,1,1.45,4.53v1.23a.83.83,0,0,1-.16.6A1,1,0,0,1,518.43,282.85Zm-4.84-5.55a2.56,2.56,0,0,0-2.05.75,3.86,3.86,0,0,0-.69,2.44h5.25a4,4,0,0,0-.6-2.42A2.29,2.29,0,0,0,513.59,277.3Z"/><path class="cls-6" d="M524.63,275.92v1.25a3.56,3.56,0,0,1,1.32-1.44,3.49,3.49,0,0,1,1.9-.57h.57a.72.72,0,0,1,.53.14,1,1,0,0,1,.13.59v1.41a1,1,0,0,1-.13.59.72.72,0,0,1-.53.14h-.73a2.89,2.89,0,0,0-2.17.88,3.2,3.2,0,0,0-.84,2.31v6.88a.92.92,0,0,1-.15.61,1.08,1.08,0,0,1-.68.15h-1.44a1.06,1.06,0,0,1-.67-.15.85.85,0,0,1-.17-.61V275.92a.85.85,0,0,1,.17-.61,1.06,1.06,0,0,1,.67-.15h1.38a1,1,0,0,1,.68.15A.86.86,0,0,1,524.63,275.92Z"/><path class="cls-6" d="M535.82,289.23a6,6,0,0,1-4.36-1.53,5.69,5.69,0,0,1-1.57-4.28v-2.56a6.08,6.08,0,0,1,1.57-4.47,5.81,5.81,0,0,1,4.36-1.6,6,6,0,0,1,4.37,1.53,5.69,5.69,0,0,1,1.57,4.28v2.56a6.08,6.08,0,0,1-1.57,4.47A5.81,5.81,0,0,1,535.82,289.23Zm0-2.64q2.83,0,2.83-3.56v-2q0-3.56-2.83-3.56T533,281v2Q533,286.58,535.82,286.59Z"/><path class="cls-6" d="M558.56,283.37a.67.67,0,0,1,.19-.52,1.09,1.09,0,0,1,.64-.13H561a1.07,1.07,0,0,1,.67.14.73.73,0,0,1,.17.56,6.83,6.83,0,0,1-.34,2.33,4.86,4.86,0,0,1-1.13,1.75,7,7,0,0,1-5.23,1.78q-4.36,0-6-3.56a5.45,5.45,0,0,1-.47-1.67,18.18,18.18,0,0,1-.13-2.46v-3.82a15.62,15.62,0,0,1,.14-2.34,9.21,9.21,0,0,1,.46-1.79,5.61,5.61,0,0,1,2.33-2.83,7.47,7.47,0,0,1,4-1,6.45,6.45,0,0,1,5,1.75,5.12,5.12,0,0,1,1.06,1.76,6.84,6.84,0,0,1,.33,2.27.72.72,0,0,1-.17.56,1.06,1.06,0,0,1-.67.15h-1.62a1.18,1.18,0,0,1-.64-.13.73.73,0,0,1-.2-.53,3.18,3.18,0,0,0-.78-2.34,3.46,3.46,0,0,0-2.43-.72,3.11,3.11,0,0,0-2.7,1.09,6.49,6.49,0,0,0-.78,3.67v4.4a6.37,6.37,0,0,0,.79,3.62,3.06,3.06,0,0,0,2.66,1.11,3.4,3.4,0,0,0,2.44-.76A3.24,3.24,0,0,0,558.56,283.37Z"/><path class="cls-6" d="M569.31,289.23a6,6,0,0,1-4.37-1.53,5.69,5.69,0,0,1-1.57-4.28v-2.56a6.08,6.08,0,0,1,1.57-4.47,5.81,5.81,0,0,1,4.37-1.6,6,6,0,0,1,4.36,1.53,5.69,5.69,0,0,1,1.57,4.28v2.56a6.08,6.08,0,0,1-1.57,4.47A5.81,5.81,0,0,1,569.31,289.23Zm0-2.64q2.82,0,2.82-3.56v-2q0-3.56-2.82-3.56T566.48,281v2Q566.48,286.58,569.31,286.59Z"/><path class="cls-6" d="M580.66,275.92v1.25a3.56,3.56,0,0,1,1.32-1.44,3.48,3.48,0,0,1,1.89-.57h.58c.26,0,.44,0,.52.14a.91.91,0,0,1,.13.59v1.41a.91.91,0,0,1-.13.59c-.08.1-.26.14-.52.14h-.73a2.89,2.89,0,0,0-2.17.88,3.2,3.2,0,0,0-.84,2.31v6.88a.86.86,0,0,1-.16.61,1,1,0,0,1-.68.15h-1.44a1,1,0,0,1-.66-.15.81.81,0,0,1-.17-.61V275.92a.81.81,0,0,1,.17-.61,1,1,0,0,1,.66-.15h1.39a1,1,0,0,1,.68.15A.86.86,0,0,1,580.66,275.92Z"/><path class="cls-6" d="M593.24,288.86h-1.47a3.8,3.8,0,0,1-3.16-1.11,4.72,4.72,0,0,1-.86-3v-7h-1.39a.72.72,0,0,1-.52-.14.92.92,0,0,1-.14-.59v-1.1a.9.9,0,0,1,.14-.59c.08-.1.26-.14.52-.14h1.39v-3.09c0-.31,0-.52.17-.61a1,1,0,0,1,.66-.15H590a1.08,1.08,0,0,1,.67.15.81.81,0,0,1,.17.61v3.09h2.38a.69.69,0,0,1,.52.14.91.91,0,0,1,.13.59V277a.93.93,0,0,1-.13.59.74.74,0,0,1-.52.14h-2.38v6.57a2.44,2.44,0,0,0,.33,1.42,1.24,1.24,0,0,0,1.11.46h.94a.74.74,0,0,1,.52.14.91.91,0,0,1,.13.59v1.23a1,1,0,0,1-.12.59C593.7,288.81,593.52,288.86,593.24,288.86Z"/><path class="cls-6" d="M605.82,282.85h-7.58V283a4.59,4.59,0,0,0,.64,2.78,2.52,2.52,0,0,0,2.13.83c1.27,0,2-.46,2.33-1.36a.66.66,0,0,1,.7-.45h1.62a1.18,1.18,0,0,1,.63.13.56.56,0,0,1,.18.47,2.87,2.87,0,0,1-.32,1.17,4.45,4.45,0,0,1-.77,1.11,4.77,4.77,0,0,1-1.9,1.16,7.75,7.75,0,0,1-2.55.41,5.67,5.67,0,0,1-4.29-1.57,6.19,6.19,0,0,1-1.52-4.47v-2a6.73,6.73,0,0,1,1.52-4.7,6.54,6.54,0,0,1,8.57-.12,6.42,6.42,0,0,1,1.45,4.53v1.23a.83.83,0,0,1-.16.6A1,1,0,0,1,605.82,282.85ZM601,277.3a2.56,2.56,0,0,0-2.05.75,3.86,3.86,0,0,0-.69,2.44h5.25a4,4,0,0,0-.6-2.42A2.29,2.29,0,0,0,601,277.3Z"/><path class="cls-6" d="M613.09,270.24h2a1.16,1.16,0,0,1,.62.12,1.25,1.25,0,0,1,.35.48l3.79,7.72,3.74-7.72a1.26,1.26,0,0,1,.36-.48,1.12,1.12,0,0,1,.61-.12h1.81c.43,0,.65.14.65.42a.81.81,0,0,1-.08.34l-5.6,10.8v6.3c0,.32,0,.52-.17.62a1.11,1.11,0,0,1-.66.14H619a1.17,1.17,0,0,1-.67-.14.83.83,0,0,1-.17-.62v-6.3L612.52,271a.68.68,0,0,1-.08-.34C612.44,270.38,612.66,270.24,613.09,270.24Z"/><rect class="cls-1" x="1.57" y="336.3" width="205.96" height="319.95" rx="20.77"/><path class="cls-7" d="M22.34,336.3H186.76a20.77,20.77,0,0,1,20.77,20.77v86.07a0,0,0,0,1,0,0H1.57a0,0,0,0,1,0,0V357.07A20.77,20.77,0,0,1,22.34,336.3Z"/><path class="cls-7" d="M116.93,508.39v3.18a2.91,2.91,0,0,1-.4,1.83,2.17,2.17,0,0,1-1.69.48H89.14a2.91,2.91,0,0,1-1.83-.4,2.22,2.22,0,0,1-.48-1.7V464.57a2.18,2.18,0,0,1,.48-1.69,3,3,0,0,1,1.83-.39h4.19a3,3,0,0,1,1.84.39,2.19,2.19,0,0,1,.47,1.69v41.51h19.2c.87,0,1.43.15,1.69.47A3,3,0,0,1,116.93,508.39Z"/><path class="cls-1" d="M80.38,357.22q10.38,0,15.5,4.41a11.7,11.7,0,0,1,4.05,9.43,2.29,2.29,0,0,1-.57,1.8,3.7,3.7,0,0,1-2.25.48H92.27a3.72,3.72,0,0,1-2-.39,2.11,2.11,0,0,1-.75-1.46,7,7,0,0,0-1.67-3.87q-2.11-2.12-7.22-2.12t-7.4,2.65q-2.73,3.25-2.73,9.51v6.17a10.36,10.36,0,0,1,4.93-3.39,21.32,21.32,0,0,1,7.75-1.37q18,0,18,16.91v4.23q0,8.9-5.41,13.78t-15.29,4.89q-13.3,0-18-8.63a17.17,17.17,0,0,1-2-5.59,44.13,44.13,0,0,1-.57-7.88v-12c0-3.71.11-6.7.35-9a32.47,32.47,0,0,1,1.14-6.08Q65.13,357.22,80.38,357.22Zm.08,53.21q10.23,0,10.22-10.39v-2.12q0-10.4-10.22-10.39T70.15,397.92V400Q70.15,410.42,80.46,410.43Z"/><path class="cls-1" d="M116.31,369.1h10.42V358.41a1.82,1.82,0,0,1,.39-1.37,2.35,2.35,0,0,1,1.53-.35h3.29a2.69,2.69,0,0,1,1.55.31,1.88,1.88,0,0,1,.37,1.41V369.1h10.43c.73,0,1.2.13,1.4.39A2.56,2.56,0,0,1,146,371v3.29a2.38,2.38,0,0,1-.35,1.54,1.87,1.87,0,0,1-1.37.38H133.86v10.7c0,.73-.12,1.19-.37,1.4a2.61,2.61,0,0,1-1.55.31h-3.29a2.36,2.36,0,0,1-1.53-.34,1.82,1.82,0,0,1-.39-1.37v-10.7H116.31a1.85,1.85,0,0,1-1.37-.38,2.4,2.4,0,0,1-.34-1.54V371a2.67,2.67,0,0,1,.3-1.54A1.82,1.82,0,0,1,116.31,369.1Z"/><path class="cls-1" d="M138.68,395.52a6.55,6.55,0,0,1,5.4,2.17,9.1,9.1,0,0,1,1.77,5.93v14.67a1.38,1.38,0,0,1-.3,1.06,1.88,1.88,0,0,1-1.14.24H142a1.88,1.88,0,0,1-1.14-.24,1.39,1.39,0,0,1-.29-1.06V404.42a5.39,5.39,0,0,0-.78-3.15,3.3,3.3,0,0,0-2.85-1.1,4,4,0,0,0-3.13,1.34,5.4,5.4,0,0,0-1.16,3.67v13.11a1.43,1.43,0,0,1-.29,1.06,1.94,1.94,0,0,1-1.15.24h-2.45a1.88,1.88,0,0,1-1.14-.24,1.39,1.39,0,0,1-.29-1.06V404.42a5.38,5.38,0,0,0-.79-3.15,3.27,3.27,0,0,0-2.84-1.1,4,4,0,0,0-3.14,1.34,5.46,5.46,0,0,0-1.16,3.67v13.11a1.39,1.39,0,0,1-.29,1.06,1.88,1.88,0,0,1-1.14.24h-2.46a1.88,1.88,0,0,1-1.14-.24,1.38,1.38,0,0,1-.3-1.06V397.44a1.34,1.34,0,0,1,.3-1.05,1.87,1.87,0,0,1,1.14-.25h2.37a2,2,0,0,1,1.15.25,1.38,1.38,0,0,1,.29,1.05v.89a7.22,7.22,0,0,1,6.17-2.81,7.6,7.6,0,0,1,3.76.85,5.92,5.92,0,0,1,2.37,2.41,6.9,6.9,0,0,1,2.91-2.41A9.82,9.82,0,0,1,138.68,395.52Z"/><path class="cls-7" d="M58.93,543.75c-1.74-2.78-2-3.18-2.37-3.66a.74.74,0,0,0-1.28,0c-.34.48-.62.88-2.36,3.66-2.81,4.53-6.87,11.71-8.89,18.47-2.56,8.7,1.62,16.93,11.89,16.93s14.45-8.23,11.89-16.93c-2-6.76-6.08-13.94-8.88-18.47"/><path class="cls-7" d="M88.62,543.75c-1.74-2.78-2-3.18-2.37-3.66a.73.73,0,0,0-1.27,0c-.35.48-.63.88-2.37,3.66-2.8,4.53-6.87,11.71-8.89,18.47-2.56,8.7,1.62,16.93,11.89,16.93s14.45-8.23,11.89-16.93c-2-6.76-6.08-13.94-8.88-18.47"/><path class="cls-7" d="M118.31,543.75c-1.74-2.78-2-3.18-2.37-3.66a.73.73,0,0,0-1.27,0c-.35.48-.63.88-2.37,3.66-2.8,4.53-6.87,11.71-8.89,18.47-2.56,8.7,1.62,16.93,11.89,16.93s14.45-8.23,11.89-16.93c-2-6.76-6.08-13.94-8.88-18.47"/><path class="cls-7" d="M148,543.75c-1.74-2.78-2-3.18-2.37-3.66a.73.73,0,0,0-1.27,0c-.35.48-.63.88-2.37,3.66-2.8,4.53-6.87,11.71-8.89,18.47-2.56,8.7,1.62,16.93,11.89,16.93s14.46-8.23,11.89-16.93c-2-6.76-6.08-13.94-8.88-18.47"/><rect class="cls-3" x="1.57" y="336.3" width="205.96" height="319.95" rx="20.77"/><path class="cls-7" d="M29.66,605.44l5.8,17.39a1.13,1.13,0,0,1,0,.29c0,.32-.19.47-.57.47H33.11c-.33,0-.55,0-.64-.14a1.59,1.59,0,0,1-.3-.62L31,619.15H24.11l-1.18,3.71a1.4,1.4,0,0,1-.3.6,1,1,0,0,1-.64.13H20.27c-.39,0-.58-.15-.58-.47a1.91,1.91,0,0,1,0-.29l5.89-17.39a.57.57,0,0,1,.29-.39,1.48,1.48,0,0,1,.55-.08h2.35a1.52,1.52,0,0,1,.55.08A.59.59,0,0,1,29.66,605.44Zm-2.15,3-2.54,8h5.1Z"/><path class="cls-7" d="M40.12,625.29a1.9,1.9,0,0,0,.81.68,3.52,3.52,0,0,0,1.28.19,4.05,4.05,0,0,0,1.31-.2,2.19,2.19,0,0,0,1.59-2.39v-1.31a4.47,4.47,0,0,1-3.34,1.18,5.2,5.2,0,0,1-4-1.51,6.12,6.12,0,0,1-1.38-4.3v-2.17a5.45,5.45,0,0,1,6-5.94,6.19,6.19,0,0,1,4.34,1.41,5.14,5.14,0,0,1,1.55,4v8.42a4.84,4.84,0,0,1-1.45,3.89,7.16,7.16,0,0,1-4.62,1.21,7.45,7.45,0,0,1-3.87-.85,2.59,2.59,0,0,1-1.42-2.29c0-.33.24-.49.71-.49h1.73a.88.88,0,0,1,.44.09A1.22,1.22,0,0,1,40.12,625.29Zm-.63-9.7v1.62q0,3.59,2.85,3.58c1.88,0,2.83-1.19,2.83-3.58v-1.62a4,4,0,0,0-.7-2.62,2.62,2.62,0,0,0-2.13-.83,2.67,2.67,0,0,0-2.16.83A4.09,4.09,0,0,0,39.49,615.59Z"/><path class="cls-7" d="M58.69,622.83v-.52a4.3,4.3,0,0,1-1.57,1.22A5,5,0,0,1,55,624a4,4,0,0,1-3.23-1.27,5.23,5.23,0,0,1-1.06-3.47v-8.57a.83.83,0,0,1,.17-.62,1.07,1.07,0,0,1,.67-.14H53a1,1,0,0,1,.66.14c.12.1.17.3.17.62v8.1a3,3,0,0,0,.48,1.85,2,2,0,0,0,1.72.64,2.4,2.4,0,0,0,1.92-.79,3.07,3.07,0,0,0,.7-2.14v-7.66c0-.32,0-.52.17-.62a1,1,0,0,1,.66-.14h1.44a1.07,1.07,0,0,1,.67.14.83.83,0,0,1,.17.62v12.18a.83.83,0,0,1-.17.62,1.07,1.07,0,0,1-.67.14H59.53a1.07,1.07,0,0,1-.67-.14A.83.83,0,0,1,58.69,622.83Z"/><path class="cls-7" d="M63.58,628.07H62.19a.69.69,0,0,1-.52-.15.89.89,0,0,1-.13-.59v-1.12a.91.91,0,0,1,.13-.59.69.69,0,0,1,.52-.14h.87a1.57,1.57,0,0,0,1.19-.4,1.84,1.84,0,0,0,.38-1.3V610.65c0-.32.05-.52.17-.62a1,1,0,0,1,.66-.14H66.9a1.07,1.07,0,0,1,.67.14.83.83,0,0,1,.17.62V624a4.06,4.06,0,0,1-1,3.11A4.44,4.44,0,0,1,63.58,628.07Zm2.62-19.75a1.92,1.92,0,0,1-1.3-.42,1.44,1.44,0,0,1-.48-1.15v-.55A1.45,1.45,0,0,1,64.9,605a2,2,0,0,1,1.3-.4,2,2,0,0,1,1.32.4A1.45,1.45,0,0,1,68,606.2v.55a1.44,1.44,0,0,1-.48,1.15A2,2,0,0,1,66.2,608.32Z"/><path class="cls-7" d="M80.79,617.58H73.21v.13a4.59,4.59,0,0,0,.64,2.78,2.53,2.53,0,0,0,2.13.83c1.27,0,2-.46,2.33-1.36a.66.66,0,0,1,.7-.45h1.63a1.17,1.17,0,0,1,.62.13.56.56,0,0,1,.19.47,2.71,2.71,0,0,1-.33,1.17,4.45,4.45,0,0,1-.77,1.11,4.7,4.7,0,0,1-1.9,1.16,7.75,7.75,0,0,1-2.55.41,5.67,5.67,0,0,1-4.29-1.57,6.19,6.19,0,0,1-1.52-4.47v-2a6.73,6.73,0,0,1,1.52-4.7,5.54,5.54,0,0,1,4.32-1.66,5.6,5.6,0,0,1,4.25,1.54,6.42,6.42,0,0,1,1.45,4.53v1.23a.81.81,0,0,1-.16.6A1,1,0,0,1,80.79,617.58ZM76,612a2.56,2.56,0,0,0-2,.75,3.86,3.86,0,0,0-.69,2.44h5.25a4,4,0,0,0-.6-2.42A2.29,2.29,0,0,0,76,612Z"/><path class="cls-7" d="M87,610.65v1.25a3.62,3.62,0,0,1,1.32-1.44,3.51,3.51,0,0,1,1.9-.57h.57a.7.7,0,0,1,.53.14,1,1,0,0,1,.13.59V612a1,1,0,0,1-.13.59.7.7,0,0,1-.53.14h-.73a2.89,2.89,0,0,0-2.17.88A3.21,3.21,0,0,0,87,616v6.87a.92.92,0,0,1-.15.61,1.08,1.08,0,0,1-.68.15H84.77a1.06,1.06,0,0,1-.67-.15.85.85,0,0,1-.17-.61V610.65a.85.85,0,0,1,.17-.61,1.06,1.06,0,0,1,.67-.15h1.38a1,1,0,0,1,.68.15A.86.86,0,0,1,87,610.65Z"/><path class="cls-7" d="M98.19,624a6,6,0,0,1-4.37-1.53,5.69,5.69,0,0,1-1.57-4.28v-2.56a6.08,6.08,0,0,1,1.57-4.47,5.81,5.81,0,0,1,4.37-1.6,6,6,0,0,1,4.36,1.53,5.69,5.69,0,0,1,1.57,4.28v2.56a6.08,6.08,0,0,1-1.57,4.47A5.81,5.81,0,0,1,98.19,624Zm0-2.64q2.82,0,2.82-3.56v-2q0-3.56-2.82-3.56t-2.83,3.56v2Q95.36,621.32,98.19,621.32Z"/><path class="cls-7" d="M120.92,618.1a.67.67,0,0,1,.19-.52,1.09,1.09,0,0,1,.64-.13h1.57a1.07,1.07,0,0,1,.67.14.73.73,0,0,1,.17.56,6.83,6.83,0,0,1-.34,2.33,4.86,4.86,0,0,1-1.13,1.75,7,7,0,0,1-5.23,1.78c-2.91,0-4.9-1.18-6-3.56a5.74,5.74,0,0,1-.47-1.67,18.18,18.18,0,0,1-.13-2.46V612.5a17.08,17.08,0,0,1,.14-2.34,9.21,9.21,0,0,1,.46-1.79,5.55,5.55,0,0,1,2.33-2.82,7.38,7.38,0,0,1,4-1,6.45,6.45,0,0,1,5,1.75,5.12,5.12,0,0,1,1.06,1.76,6.84,6.84,0,0,1,.33,2.27.72.72,0,0,1-.17.56,1.06,1.06,0,0,1-.67.15H121.7a1.18,1.18,0,0,1-.64-.13.73.73,0,0,1-.2-.53,3.18,3.18,0,0,0-.78-2.34,3.46,3.46,0,0,0-2.43-.72,3.11,3.11,0,0,0-2.7,1.09,6.49,6.49,0,0,0-.78,3.67v4.4a6.28,6.28,0,0,0,.8,3.62,3,3,0,0,0,2.65,1.11,3.44,3.44,0,0,0,2.45-.76A3.28,3.28,0,0,0,120.92,618.1Z"/><path class="cls-7" d="M131.67,624a6,6,0,0,1-4.37-1.53,5.69,5.69,0,0,1-1.57-4.28v-2.56a6.08,6.08,0,0,1,1.57-4.47,5.81,5.81,0,0,1,4.37-1.6,6,6,0,0,1,4.36,1.53,5.69,5.69,0,0,1,1.57,4.28v2.56a6.08,6.08,0,0,1-1.57,4.47A5.81,5.81,0,0,1,131.67,624Zm0-2.64q2.82,0,2.82-3.56v-2q0-3.56-2.82-3.56t-2.83,3.56v2Q128.84,621.32,131.67,621.32Z"/><path class="cls-7" d="M143,610.65v1.25a3.62,3.62,0,0,1,1.32-1.44,3.49,3.49,0,0,1,1.9-.57h.57c.26,0,.44,0,.52.14a.91.91,0,0,1,.13.59V612a.91.91,0,0,1-.13.59c-.08.1-.26.14-.52.14h-.73a2.87,2.87,0,0,0-2.17.88,3.21,3.21,0,0,0-.84,2.32v6.87a.86.86,0,0,1-.16.61,1,1,0,0,1-.68.15h-1.44a1,1,0,0,1-.66-.15.81.81,0,0,1-.17-.61V610.65a.81.81,0,0,1,.17-.61,1,1,0,0,1,.66-.15h1.39a1,1,0,0,1,.68.15A.86.86,0,0,1,143,610.65Z"/><path class="cls-7" d="M155.6,623.59h-1.47a3.8,3.8,0,0,1-3.16-1.11,4.72,4.72,0,0,1-.86-3v-7h-1.39a.72.72,0,0,1-.52-.14.93.93,0,0,1-.13-.59v-1.1a.91.91,0,0,1,.13-.59c.08-.1.26-.14.52-.14h1.39V606.8c0-.31,0-.52.17-.61a1,1,0,0,1,.66-.15h1.44a1.06,1.06,0,0,1,.67.15.81.81,0,0,1,.17.61v3.09h2.38a.69.69,0,0,1,.52.14.91.91,0,0,1,.13.59v1.1a.93.93,0,0,1-.13.59.74.74,0,0,1-.52.14h-2.38V619a2.44,2.44,0,0,0,.33,1.42,1.24,1.24,0,0,0,1.11.46h.94a.74.74,0,0,1,.52.14.93.93,0,0,1,.13.59v1.23a1.1,1.1,0,0,1-.11.59C156.06,623.55,155.88,623.59,155.6,623.59Z"/><path class="cls-7" d="M168.18,617.58h-7.59v.13a4.58,4.58,0,0,0,.65,2.78,2.52,2.52,0,0,0,2.13.83c1.27,0,2-.46,2.33-1.36a.66.66,0,0,1,.7-.45H168a1.18,1.18,0,0,1,.63.13.56.56,0,0,1,.18.47,2.68,2.68,0,0,1-.32,1.17,4.45,4.45,0,0,1-.77,1.11,4.7,4.7,0,0,1-1.9,1.16,7.75,7.75,0,0,1-2.55.41,5.67,5.67,0,0,1-4.29-1.57,6.19,6.19,0,0,1-1.52-4.47v-2a6.73,6.73,0,0,1,1.52-4.7,5.54,5.54,0,0,1,4.32-1.66,5.6,5.6,0,0,1,4.25,1.54,6.42,6.42,0,0,1,1.45,4.53v1.23a.81.81,0,0,1-.16.6A1,1,0,0,1,168.18,617.58ZM163.34,612a2.56,2.56,0,0,0-2.05.75,3.92,3.92,0,0,0-.7,2.44h5.26a4,4,0,0,0-.6-2.42A2.29,2.29,0,0,0,163.34,612Z"/><path class="cls-7" d="M175.45,605h2a1.16,1.16,0,0,1,.62.12,1.34,1.34,0,0,1,.35.48l3.79,7.72,3.74-7.72a1.34,1.34,0,0,1,.36-.48,1.12,1.12,0,0,1,.61-.12h1.81c.43,0,.65.14.65.42a.81.81,0,0,1-.08.34l-5.6,10.8v6.3c0,.32,0,.52-.17.62a1,1,0,0,1-.66.14h-1.52a1.09,1.09,0,0,1-.67-.14.83.83,0,0,1-.17-.62v-6.3l-5.59-10.8a.68.68,0,0,1-.08-.34C174.8,605.11,175,605,175.45,605Z"/><rect class="cls-1" x="217.92" y="336.3" width="205.96" height="319.95" rx="20.77"/><path class="cls-8" d="M238.7,336.3H403.11a20.77,20.77,0,0,1,20.77,20.77v86.07a0,0,0,0,1,0,0h-206a0,0,0,0,1,0,0V357.07A20.77,20.77,0,0,1,238.7,336.3Z"/><path class="cls-8" d="M319.53,508.39v3.18a3,3,0,0,1-.39,1.83,2.18,2.18,0,0,1-1.69.48h-25.7a3,3,0,0,1-1.84-.4,2.27,2.27,0,0,1-.47-1.7V464.57a2.23,2.23,0,0,1,.47-1.69,3.05,3.05,0,0,1,1.84-.39h4.18a3,3,0,0,1,1.84.39,2.19,2.19,0,0,1,.47,1.69v41.51h19.21a2.19,2.19,0,0,1,1.69.47A3,3,0,0,1,319.53,508.39Z"/><path class="cls-8" d="M356.63,508.39v3.18a3,3,0,0,1-.39,1.83,2.18,2.18,0,0,1-1.69.48h-25.7a3,3,0,0,1-1.84-.4,2.27,2.27,0,0,1-.48-1.7V464.57a2.22,2.22,0,0,1,.48-1.69,3,3,0,0,1,1.84-.39H333a3,3,0,0,1,1.84.39,2.19,2.19,0,0,1,.47,1.69v41.51h19.21a2.19,2.19,0,0,1,1.69.47A3,3,0,0,1,356.63,508.39Z"/><path class="cls-1" d="M296,357.22q13.29,0,18,8.63a17.55,17.55,0,0,1,2,5.6,45.09,45.09,0,0,1,.57,7.88v12a89.83,89.83,0,0,1-.36,9,32.62,32.62,0,0,1-1.14,6.08q-3.71,12.51-18.94,12.5a33.7,33.7,0,0,1-9.29-1.05,17.78,17.78,0,0,1-6.56-3.62q-3.7-3.25-3.71-9.15a2.3,2.3,0,0,1,.58-1.81,3.68,3.68,0,0,1,2.25-.49h4.93a3.69,3.69,0,0,1,2,.4,2.13,2.13,0,0,1,.75,1.45,6.43,6.43,0,0,0,2.51,4.46q2,1.37,5.95,1.36,5.28,0,7.83-2.64,2.66-2.93,2.65-9.25v-6.26a10.42,10.42,0,0,1-4.93,3.4A21.32,21.32,0,0,1,293.3,397q-18,0-18-16.92V375.9q0-8.89,5.42-13.79T296,357.22Zm-.27,8.46c-3.52,0-6.11.84-7.75,2.51s-2.47,4.3-2.47,7.88v2.12q0,5.37,2.47,7.88c1.64,1.67,4.23,2.51,7.75,2.51s6.2-.84,7.84-2.51,2.46-4.3,2.46-7.88v-2.12c0-3.58-.81-6.21-2.46-7.88S299.34,365.68,295.76,365.68Z"/><path class="cls-1" d="M332.67,369.1h10.42V358.41a1.87,1.87,0,0,1,.38-1.37,2.4,2.4,0,0,1,1.54-.35h3.29a2.65,2.65,0,0,1,1.54.31c.26.21.38.68.38,1.41V369.1h10.43a1.81,1.81,0,0,1,1.4.39,2.65,2.65,0,0,1,.31,1.54v3.29a2.4,2.4,0,0,1-.34,1.54,1.87,1.87,0,0,1-1.37.38H350.22v10.7c0,.73-.12,1.19-.38,1.4a2.58,2.58,0,0,1-1.54.31H345a2.41,2.41,0,0,1-1.54-.34,1.87,1.87,0,0,1-.38-1.37v-10.7H332.67a1.85,1.85,0,0,1-1.37-.38,2.38,2.38,0,0,1-.35-1.54V371a2.58,2.58,0,0,1,.31-1.54C331.47,369.23,331.93,369.1,332.67,369.1Z"/><path class="cls-1" d="M355,395.52a6.53,6.53,0,0,1,5.39,2.17,9.1,9.1,0,0,1,1.77,5.93v14.67a1.43,1.43,0,0,1-.29,1.06,1.9,1.9,0,0,1-1.14.24h-2.46a1.88,1.88,0,0,1-1.14-.24,1.38,1.38,0,0,1-.3-1.06V404.42a5.39,5.39,0,0,0-.78-3.15,3.27,3.27,0,0,0-2.84-1.1,3.92,3.92,0,0,0-3.13,1.34,5.4,5.4,0,0,0-1.16,3.67v13.11a1.43,1.43,0,0,1-.29,1.06,2,2,0,0,1-1.15.24h-2.46a1.9,1.9,0,0,1-1.14-.24,1.39,1.39,0,0,1-.29-1.06V404.42a5.38,5.38,0,0,0-.79-3.15,3.27,3.27,0,0,0-2.84-1.1,4,4,0,0,0-3.13,1.34,5.41,5.41,0,0,0-1.17,3.67v13.11a1.39,1.39,0,0,1-.29,1.06,1.88,1.88,0,0,1-1.14.24h-2.46a1.9,1.9,0,0,1-1.14-.24,1.43,1.43,0,0,1-.29-1.06V397.44a1.38,1.38,0,0,1,.29-1.05,1.89,1.89,0,0,1,1.14-.25h2.37a1.93,1.93,0,0,1,1.15.25,1.38,1.38,0,0,1,.29,1.05v.89a7.23,7.23,0,0,1,6.17-2.81,7.58,7.58,0,0,1,3.76.85,5.8,5.8,0,0,1,2.37,2.41,7,7,0,0,1,2.91-2.41A9.83,9.83,0,0,1,355,395.52Z"/><path class="cls-8" d="M264.74,543.75c-1.74-2.78-2-3.18-2.37-3.66a.74.74,0,0,0-1.28,0c-.34.48-.62.88-2.36,3.66-2.81,4.53-6.87,11.71-8.89,18.47-2.56,8.7,1.62,16.93,11.89,16.93s14.45-8.23,11.89-16.93c-2-6.76-6.08-13.94-8.88-18.47"/><path class="cls-8" d="M294.43,543.75c-1.74-2.78-2-3.18-2.37-3.66a.73.73,0,0,0-1.27,0c-.35.48-.63.88-2.37,3.66-2.8,4.53-6.87,11.71-8.89,18.47-2.56,8.7,1.62,16.93,11.89,16.93s14.45-8.23,11.89-16.93c-2-6.76-6.08-13.94-8.88-18.47"/><path class="cls-8" d="M324.12,543.75c-1.74-2.78-2-3.18-2.37-3.66a.73.73,0,0,0-1.27,0c-.35.48-.63.88-2.37,3.66-2.8,4.53-6.87,11.71-8.89,18.47-2.56,8.7,1.62,16.93,11.89,16.93s14.45-8.23,11.89-16.93c-2-6.76-6.08-13.94-8.88-18.47"/><path class="cls-8" d="M353.81,543.75c-1.74-2.78-2-3.18-2.37-3.66a.73.73,0,0,0-1.27,0c-.35.48-.63.88-2.37,3.66-2.8,4.53-6.87,11.71-8.89,18.47-2.56,8.7,1.62,16.93,11.9,16.93s14.45-8.23,11.88-16.93c-2-6.76-6.08-13.94-8.88-18.47"/><path class="cls-8" d="M384,543.75c-1.74-2.78-2-3.18-2.37-3.66a.74.74,0,0,0-1.28,0c-.35.48-.62.88-2.36,3.66-2.81,4.53-6.87,11.71-8.9,18.47-2.56,8.7,1.63,16.93,11.9,16.93s14.45-8.23,11.89-16.93c-2-6.76-6.08-13.94-8.88-18.47"/><rect class="cls-3" x="217.92" y="336.3" width="205.96" height="319.95" rx="20.77"/><path class="cls-8" d="M246.38,605.44l5.81,17.39a1.91,1.91,0,0,1,.05.29c0,.32-.19.47-.57.47h-1.83c-.34,0-.55,0-.64-.14a1.72,1.72,0,0,1-.31-.62l-1.2-3.68h-6.85l-1.18,3.71a1.4,1.4,0,0,1-.3.6,1,1,0,0,1-.64.13H237c-.38,0-.57-.15-.57-.47a1.13,1.13,0,0,1,.05-.29l5.89-17.39a.59.59,0,0,1,.28-.39,1.52,1.52,0,0,1,.55-.08h2.36a1.56,1.56,0,0,1,.55.08A.59.59,0,0,1,246.38,605.44Zm-2.14,3-2.54,8h5.1Z"/><path class="cls-8" d="M256.85,625.29a1.9,1.9,0,0,0,.81.68,3.48,3.48,0,0,0,1.28.19,4.1,4.1,0,0,0,1.31-.2,2.55,2.55,0,0,0,.91-.51,2.5,2.5,0,0,0,.68-1.88v-1.31a4.5,4.5,0,0,1-3.35,1.18,5.19,5.19,0,0,1-4-1.51,6.12,6.12,0,0,1-1.38-4.3v-2.17a5.45,5.45,0,0,1,6-5.94,6.21,6.21,0,0,1,4.34,1.41,5.13,5.13,0,0,1,1.54,4v8.42a4.81,4.81,0,0,1-1.45,3.89,7.13,7.13,0,0,1-4.61,1.21,7.52,7.52,0,0,1-3.88-.85,2.58,2.58,0,0,1-1.41-2.29c0-.33.24-.49.71-.49H256a.89.89,0,0,1,.45.09A1.33,1.33,0,0,1,256.85,625.29Zm-.63-9.7v1.62q0,3.59,2.85,3.58t2.82-3.58v-1.62a4.09,4.09,0,0,0-.69-2.62,2.62,2.62,0,0,0-2.13-.83,2.66,2.66,0,0,0-2.16.83A4.09,4.09,0,0,0,256.22,615.59Z"/><path class="cls-8" d="M275.42,622.83v-.52a4.3,4.3,0,0,1-1.57,1.22,5,5,0,0,1-2.12.43,3.94,3.94,0,0,1-3.23-1.27,5.23,5.23,0,0,1-1.06-3.47v-8.57a.83.83,0,0,1,.17-.62,1.07,1.07,0,0,1,.67-.14h1.44a1,1,0,0,1,.66.14.83.83,0,0,1,.17.62v8.1a3.12,3.12,0,0,0,.47,1.85,2,2,0,0,0,1.73.64,2.4,2.4,0,0,0,1.92-.79,3.11,3.11,0,0,0,.69-2.14v-7.66a.83.83,0,0,1,.17-.62,1.09,1.09,0,0,1,.67-.14h1.44a1.09,1.09,0,0,1,.67.14.83.83,0,0,1,.17.62v12.18a.83.83,0,0,1-.17.62,1.09,1.09,0,0,1-.67.14h-1.39a1,1,0,0,1-.66-.14C275.47,623.35,275.42,623.15,275.42,622.83Z"/><path class="cls-8" d="M280.31,628.07h-1.39a.69.69,0,0,1-.52-.15.89.89,0,0,1-.13-.59v-1.12a.91.91,0,0,1,.13-.59.69.69,0,0,1,.52-.14h.87a1.57,1.57,0,0,0,1.19-.4,1.84,1.84,0,0,0,.37-1.3V610.65a.83.83,0,0,1,.17-.62,1.09,1.09,0,0,1,.67-.14h1.44a1.09,1.09,0,0,1,.67.14.83.83,0,0,1,.17.62V624a4.06,4.06,0,0,1-1.05,3.11A4.46,4.46,0,0,1,280.31,628.07Zm2.61-19.75a1.89,1.89,0,0,1-1.29-.42,1.44,1.44,0,0,1-.48-1.15v-.55a1.45,1.45,0,0,1,.48-1.17,1.93,1.93,0,0,1,1.29-.4,2,2,0,0,1,1.32.4,1.42,1.42,0,0,1,.49,1.17v.55a1.42,1.42,0,0,1-.49,1.15A1.94,1.94,0,0,1,282.92,608.32Z"/><path class="cls-8" d="M297.52,617.58h-7.59v.13a4.66,4.66,0,0,0,.64,2.78,2.55,2.55,0,0,0,2.14.83c1.27,0,2.05-.46,2.32-1.36a.67.67,0,0,1,.71-.45h1.62a1.18,1.18,0,0,1,.63.13.56.56,0,0,1,.18.47,2.83,2.83,0,0,1-.32,1.17,4.22,4.22,0,0,1-.78,1.11,4.66,4.66,0,0,1-1.89,1.16,7.75,7.75,0,0,1-2.55.41,5.67,5.67,0,0,1-4.29-1.57,6.19,6.19,0,0,1-1.52-4.47v-2a6.73,6.73,0,0,1,1.52-4.7,6.53,6.53,0,0,1,8.56-.12,6.37,6.37,0,0,1,1.46,4.53v1.23a.86.86,0,0,1-.16.6A1,1,0,0,1,297.52,617.58ZM292.68,612a2.55,2.55,0,0,0-2.05.75,3.92,3.92,0,0,0-.7,2.44h5.26a4,4,0,0,0-.6-2.42A2.29,2.29,0,0,0,292.68,612Z"/><path class="cls-8" d="M303.72,610.65v1.25a3.62,3.62,0,0,1,1.32-1.44,3.49,3.49,0,0,1,1.9-.57h.57c.26,0,.44,0,.52.14a.91.91,0,0,1,.13.59V612a.91.91,0,0,1-.13.59c-.08.1-.26.14-.52.14h-.73a2.89,2.89,0,0,0-2.17.88,3.21,3.21,0,0,0-.84,2.32v6.87a.86.86,0,0,1-.16.61,1,1,0,0,1-.68.15h-1.44a1,1,0,0,1-.66-.15.81.81,0,0,1-.17-.61V610.65a.81.81,0,0,1,.17-.61,1,1,0,0,1,.66-.15h1.39a1,1,0,0,1,.68.15A.86.86,0,0,1,303.72,610.65Z"/><path class="cls-8" d="M314.91,624a6,6,0,0,1-4.36-1.53,5.69,5.69,0,0,1-1.57-4.28v-2.56a6.08,6.08,0,0,1,1.57-4.47,5.81,5.81,0,0,1,4.36-1.6,6,6,0,0,1,4.37,1.53,5.69,5.69,0,0,1,1.57,4.28v2.56a6.08,6.08,0,0,1-1.57,4.47A5.81,5.81,0,0,1,314.91,624Zm0-2.64q2.83,0,2.83-3.56v-2q0-3.56-2.83-3.56t-2.82,3.56v2Q312.09,621.32,314.91,621.32Z"/><path class="cls-8" d="M337.64,618.1a.7.7,0,0,1,.2-.52,1.09,1.09,0,0,1,.64-.13h1.57a1.09,1.09,0,0,1,.67.14.73.73,0,0,1,.17.56,7.08,7.08,0,0,1-.34,2.33,4.86,4.86,0,0,1-1.13,1.75,7,7,0,0,1-5.23,1.78c-2.91,0-4.9-1.18-6-3.56a5.45,5.45,0,0,1-.47-1.67,17.94,17.94,0,0,1-.14-2.46V612.5a15.47,15.47,0,0,1,.15-2.34,8.54,8.54,0,0,1,.46-1.79,5.53,5.53,0,0,1,2.32-2.82,7.44,7.44,0,0,1,4-1,6.45,6.45,0,0,1,5,1.75,5.12,5.12,0,0,1,1.06,1.76,6.84,6.84,0,0,1,.33,2.27.72.72,0,0,1-.17.56,1.08,1.08,0,0,1-.67.15h-1.62a1.15,1.15,0,0,1-.64-.13.69.69,0,0,1-.2-.53,3.22,3.22,0,0,0-.78-2.34,3.47,3.47,0,0,0-2.44-.72,3.11,3.11,0,0,0-2.69,1.09,6.48,6.48,0,0,0-.79,3.67v4.4a6.36,6.36,0,0,0,.8,3.62,3.05,3.05,0,0,0,2.66,1.11,3.4,3.4,0,0,0,2.44-.76A3.24,3.24,0,0,0,337.64,618.1Z"/><path class="cls-8" d="M348.39,624a6,6,0,0,1-4.36-1.53,5.69,5.69,0,0,1-1.57-4.28v-2.56a6.08,6.08,0,0,1,1.57-4.47,5.81,5.81,0,0,1,4.36-1.6,6,6,0,0,1,4.37,1.53,5.69,5.69,0,0,1,1.57,4.28v2.56a6.08,6.08,0,0,1-1.57,4.47A5.81,5.81,0,0,1,348.39,624Zm0-2.64q2.83,0,2.83-3.56v-2q0-3.56-2.83-3.56t-2.82,3.56v2Q345.57,621.32,348.39,621.32Z"/><path class="cls-8" d="M359.75,610.65v1.25a3.71,3.71,0,0,1,3.21-2h.58a.69.69,0,0,1,.52.14.91.91,0,0,1,.13.59V612a.91.91,0,0,1-.13.59.69.69,0,0,1-.52.14h-.73a2.91,2.91,0,0,0-2.18.88,3.25,3.25,0,0,0-.83,2.32v6.87a.86.86,0,0,1-.16.61,1,1,0,0,1-.68.15h-1.44a1,1,0,0,1-.66-.15.81.81,0,0,1-.17-.61V610.65a.81.81,0,0,1,.17-.61,1,1,0,0,1,.66-.15h1.39a1.06,1.06,0,0,1,.68.15A.91.91,0,0,1,359.75,610.65Z"/><path class="cls-8" d="M372.33,623.59h-1.47a3.8,3.8,0,0,1-3.16-1.11,4.73,4.73,0,0,1-.87-3v-7h-1.38a.77.77,0,0,1-.53-.14,1,1,0,0,1-.13-.59v-1.1a1,1,0,0,1,.13-.59.72.72,0,0,1,.53-.14h1.38V606.8a.81.81,0,0,1,.17-.61,1.08,1.08,0,0,1,.67-.15h1.44a1.08,1.08,0,0,1,.67.15.81.81,0,0,1,.17.61v3.09h2.38a.69.69,0,0,1,.52.14.91.91,0,0,1,.13.59v1.1a.93.93,0,0,1-.13.59.74.74,0,0,1-.52.14H370V619a2.45,2.45,0,0,0,.32,1.42,1.26,1.26,0,0,0,1.11.46h.95a.74.74,0,0,1,.52.14.93.93,0,0,1,.13.59v1.23a1,1,0,0,1-.12.59C372.78,623.55,372.61,623.59,372.33,623.59Z"/><path class="cls-8" d="M384.91,617.58h-7.59v.13a4.66,4.66,0,0,0,.64,2.78,2.55,2.55,0,0,0,2.14.83c1.27,0,2-.46,2.32-1.36a.67.67,0,0,1,.71-.45h1.62a1.18,1.18,0,0,1,.63.13.56.56,0,0,1,.18.47,2.83,2.83,0,0,1-.32,1.17,4.22,4.22,0,0,1-.78,1.11,4.66,4.66,0,0,1-1.89,1.16A7.75,7.75,0,0,1,380,624a5.67,5.67,0,0,1-4.29-1.57,6.19,6.19,0,0,1-1.52-4.47v-2a6.73,6.73,0,0,1,1.52-4.7,6.53,6.53,0,0,1,8.56-.12,6.37,6.37,0,0,1,1.45,4.53v1.23a.87.87,0,0,1-.15.6A1,1,0,0,1,384.91,617.58ZM380.07,612a2.55,2.55,0,0,0-2.05.75,3.92,3.92,0,0,0-.7,2.44h5.26a4,4,0,0,0-.6-2.42A2.29,2.29,0,0,0,380.07,612Z"/><path class="cls-8" d="M392.18,605h2a1.16,1.16,0,0,1,.62.12,1.34,1.34,0,0,1,.35.48l3.79,7.72,3.74-7.72a1.34,1.34,0,0,1,.35-.48,1.16,1.16,0,0,1,.62-.12h1.8q.66,0,.66.42a.81.81,0,0,1-.08.34l-5.6,10.8v6.3c0,.32-.05.52-.17.62a1,1,0,0,1-.66.14H398a1.07,1.07,0,0,1-.67-.14.83.83,0,0,1-.17-.62v-6.3l-5.6-10.8a.8.8,0,0,1-.07-.34C391.53,605.11,391.74,605,392.18,605Z"/><rect class="cls-1" x="435.6" y="336.3" width="205.96" height="319.95" rx="20.77"/><path class="cls-9" d="M456.38,336.3H620.79a20.77,20.77,0,0,1,20.77,20.77v86.07a0,0,0,0,1,0,0h-206a0,0,0,0,1,0,0V357.07A20.77,20.77,0,0,1,456.38,336.3Z"/><path class="cls-9" d="M517.64,508.39v3.18a3,3,0,0,1-.39,1.83,2.18,2.18,0,0,1-1.69.48h-25.7a3,3,0,0,1-1.84-.4,2.27,2.27,0,0,1-.47-1.7V464.57a2.23,2.23,0,0,1,.47-1.69,3.05,3.05,0,0,1,1.84-.39H494a3.09,3.09,0,0,1,1.85.39,2.23,2.23,0,0,1,.46,1.69v41.51h19.21a2.19,2.19,0,0,1,1.69.47A3,3,0,0,1,517.64,508.39Z"/><path class="cls-9" d="M554.74,508.39v3.18a3,3,0,0,1-.39,1.83,2.18,2.18,0,0,1-1.69.48H527a3,3,0,0,1-1.84-.4,2.27,2.27,0,0,1-.47-1.7V464.57a2.23,2.23,0,0,1,.47-1.69,3.05,3.05,0,0,1,1.84-.39h4.18a3.09,3.09,0,0,1,1.85.39,2.23,2.23,0,0,1,.46,1.69v41.51h19.21a2.19,2.19,0,0,1,1.69.47A3,3,0,0,1,554.74,508.39Z"/><path class="cls-9" d="M591.84,508.39v3.18a3,3,0,0,1-.39,1.83,2.18,2.18,0,0,1-1.69.48h-25.7a3,3,0,0,1-1.84-.4,2.27,2.27,0,0,1-.47-1.7V464.57a2.23,2.23,0,0,1,.47-1.69,3.05,3.05,0,0,1,1.84-.39h4.18a3,3,0,0,1,1.84.39,2.19,2.19,0,0,1,.47,1.69v41.51h19.21a2.19,2.19,0,0,1,1.69.47A3,3,0,0,1,591.84,508.39Z"/><path class="cls-1" d="M500,361v54.08a2.73,2.73,0,0,1-.57,2.08,3.74,3.74,0,0,1-2.25.48h-4.85a3.74,3.74,0,0,1-2.25-.48,2.74,2.74,0,0,1-.56-2.08V368h-9a2.72,2.72,0,0,1-2.07-.57,3.61,3.61,0,0,1-.49-2.25v-3.87a3.61,3.61,0,0,1,.49-2.25,2.72,2.72,0,0,1,2.07-.58h16.65a3.73,3.73,0,0,1,2.25.49A2.74,2.74,0,0,1,500,361Z"/><path class="cls-1" d="M550.88,397.48v4q0,8.19-5.16,12.81t-14.22,4.62q-11,0-16-5.1a12.61,12.61,0,0,1-3.78-9.25,3,3,0,0,1,.57-2.2,3.37,3.37,0,0,1,2.24-.53h5a3.6,3.6,0,0,1,2,.4,2.08,2.08,0,0,1,.75,1.45,6.89,6.89,0,0,0,2.59,4.8q2.08,1.46,6.31,1.45,9.06,0,9.07-9v-3.35q0-9.52-8.54-9.51a16.19,16.19,0,0,0-3.26.35,12.17,12.17,0,0,0-3,1,20.16,20.16,0,0,1-2.42,1,6.74,6.74,0,0,1-1.9.22h-4.76a3.34,3.34,0,0,1-2.28-.53,2.86,2.86,0,0,1-.53-2V361a2.88,2.88,0,0,1,.53-2,3.39,3.39,0,0,1,2.28-.53h30.22a2.93,2.93,0,0,1,2,.53,3.45,3.45,0,0,1,.52,2.3v3.87a3.44,3.44,0,0,1-.52,2.29,2.88,2.88,0,0,1-2,.53H523.13v13.74a28,28,0,0,1,5.42-1.94,23.77,23.77,0,0,1,5.5-.61Q550.88,379.16,550.88,397.48Z"/><path class="cls-1" d="M564.77,369.1H575.2V358.41a1.87,1.87,0,0,1,.38-1.37,2.36,2.36,0,0,1,1.54-.35h3.29A2.65,2.65,0,0,1,582,357a1.87,1.87,0,0,1,.38,1.41V369.1h10.42c.73,0,1.2.13,1.4.39a2.56,2.56,0,0,1,.32,1.54v3.29a2.38,2.38,0,0,1-.35,1.54,1.85,1.85,0,0,1-1.37.38H582.33v10.7a1.84,1.84,0,0,1-.38,1.4,2.58,2.58,0,0,1-1.54.31h-3.29a2.38,2.38,0,0,1-1.54-.34,1.87,1.87,0,0,1-.38-1.37v-10.7H564.77a1.82,1.82,0,0,1-1.36-.38,2.38,2.38,0,0,1-.35-1.54V371a2.58,2.58,0,0,1,.31-1.54C563.57,369.23,564,369.1,564.77,369.1Z"/><path class="cls-1" d="M587.15,395.52a6.54,6.54,0,0,1,5.39,2.17,9.1,9.1,0,0,1,1.77,5.93v14.67a1.43,1.43,0,0,1-.29,1.06,1.92,1.92,0,0,1-1.14.24h-2.47a1.9,1.9,0,0,1-1.14-.24,1.39,1.39,0,0,1-.29-1.06V404.42a5.39,5.39,0,0,0-.78-3.15,3.28,3.28,0,0,0-2.84-1.1,3.92,3.92,0,0,0-3.13,1.34,5.41,5.41,0,0,0-1.17,3.67v13.11a1.43,1.43,0,0,1-.29,1.06,1.92,1.92,0,0,1-1.14.24h-2.46a1.88,1.88,0,0,1-1.14-.24,1.39,1.39,0,0,1-.29-1.06V404.42a5.38,5.38,0,0,0-.79-3.15,3.27,3.27,0,0,0-2.84-1.1,4,4,0,0,0-3.13,1.34,5.41,5.41,0,0,0-1.17,3.67v13.11a1.39,1.39,0,0,1-.29,1.06,1.88,1.88,0,0,1-1.14.24h-2.46a1.9,1.9,0,0,1-1.14-.24,1.43,1.43,0,0,1-.29-1.06V397.44a1.38,1.38,0,0,1,.29-1.05,1.89,1.89,0,0,1,1.14-.25h2.37a1.93,1.93,0,0,1,1.15.25,1.38,1.38,0,0,1,.29,1.05v.89a7.23,7.23,0,0,1,6.17-2.81,7.6,7.6,0,0,1,3.76.85,5.86,5.86,0,0,1,2.37,2.41,6.9,6.9,0,0,1,2.91-2.41A9.83,9.83,0,0,1,587.15,395.52Z"/><path class="cls-9" d="M496.76,543.75c-1.73-2.78-2-3.18-2.37-3.66a.73.73,0,0,0-1.27,0c-.35.48-.62.88-2.37,3.66-2.8,4.53-6.87,11.71-8.89,18.47-2.56,8.7,1.62,16.93,11.9,16.93s14.44-8.23,11.89-16.93c-2-6.76-6.09-13.94-8.89-18.47"/><path class="cls-9" d="M526.45,543.75c-1.73-2.78-2-3.18-2.37-3.66a.73.73,0,0,0-1.27,0c-.35.48-.62.88-2.36,3.66-2.81,4.53-6.87,11.71-8.9,18.47-2.56,8.7,1.62,16.93,11.9,16.93s14.45-8.23,11.89-16.93c-2-6.76-6.09-13.94-8.89-18.47"/><path class="cls-9" d="M466.61,543.75c-1.74-2.78-2-3.18-2.37-3.66a.74.74,0,0,0-1.28,0c-.34.48-.62.88-2.36,3.66-2.81,4.53-6.87,11.71-8.89,18.47-2.56,8.7,1.62,16.93,11.89,16.93s14.45-8.23,11.89-16.93c-2-6.76-6.08-13.94-8.88-18.47"/><path class="cls-9" d="M556.15,543.75c-1.74-2.78-2-3.18-2.37-3.66a.74.74,0,0,0-1.28,0c-.35.48-.62.88-2.36,3.66-2.81,4.53-6.87,11.71-8.9,18.47-2.56,8.7,1.63,16.93,11.9,16.93s14.45-8.23,11.89-16.93c-2-6.76-6.08-13.94-8.88-18.47"/><path class="cls-9" d="M585.84,543.75c-1.74-2.78-2-3.18-2.37-3.66a.74.74,0,0,0-1.28,0c-.35.48-.62.88-2.36,3.66-2.81,4.53-6.87,11.71-8.9,18.47-2.56,8.7,1.63,16.93,11.9,16.93s14.45-8.23,11.89-16.93c-2-6.76-6.08-13.94-8.88-18.47"/><path class="cls-9" d="M615.41,543.75c-1.74-2.78-2-3.18-2.37-3.66a.74.74,0,0,0-1.28,0c-.34.48-.62.88-2.36,3.66-2.81,4.53-6.87,11.71-8.89,18.47-2.57,8.7,1.62,16.93,11.89,16.93s14.45-8.23,11.89-16.93c-2-6.76-6.08-13.94-8.88-18.47"/><rect class="cls-3" x="435.6" y="336.3" width="205.96" height="319.95" rx="20.77"/><path class="cls-9" d="M463.11,605.44l5.81,17.39a1.91,1.91,0,0,1,.05.29c0,.32-.19.47-.58.47h-1.83a1,1,0,0,1-.64-.14,2,2,0,0,1-.3-.62l-1.2-3.68h-6.85l-1.18,3.71a1.68,1.68,0,0,1-.3.6,1,1,0,0,1-.64.13h-1.73c-.38,0-.58-.15-.58-.47a1.32,1.32,0,0,1,.06-.29l5.88-17.39a.59.59,0,0,1,.29-.39,1.48,1.48,0,0,1,.55-.08h2.35a1.48,1.48,0,0,1,.55.08A.59.59,0,0,1,463.11,605.44Zm-2.14,3-2.54,8h5.1Z"/><path class="cls-9" d="M473.57,625.29a2,2,0,0,0,.81.68,3.56,3.56,0,0,0,1.28.19A4.05,4.05,0,0,0,477,626a2.19,2.19,0,0,0,1.6-2.39v-1.31a4.5,4.5,0,0,1-3.35,1.18,5.18,5.18,0,0,1-4-1.51,6.08,6.08,0,0,1-1.39-4.3v-2.17a5.45,5.45,0,0,1,6-5.94,6.21,6.21,0,0,1,4.34,1.41,5.13,5.13,0,0,1,1.54,4v8.42a4.81,4.81,0,0,1-1.45,3.89,7.16,7.16,0,0,1-4.62,1.21,7.45,7.45,0,0,1-3.87-.85,2.58,2.58,0,0,1-1.41-2.29c0-.33.23-.49.7-.49h1.73a1,1,0,0,1,.45.09A1.33,1.33,0,0,1,473.57,625.29Zm-.62-9.7v1.62q0,3.59,2.85,3.58t2.82-3.58v-1.62a4.09,4.09,0,0,0-.69-2.62,3.19,3.19,0,0,0-4.29,0A4.09,4.09,0,0,0,473,615.59Z"/><path class="cls-9" d="M492.14,622.83v-.52a4.22,4.22,0,0,1-1.57,1.22,4.94,4.94,0,0,1-2.11.43,3.94,3.94,0,0,1-3.23-1.27,5.23,5.23,0,0,1-1.06-3.47v-8.57c0-.32.05-.52.17-.62a1,1,0,0,1,.66-.14h1.44a1.09,1.09,0,0,1,.67.14.83.83,0,0,1,.17.62v8.1a3.12,3.12,0,0,0,.47,1.85,2,2,0,0,0,1.73.64,2.42,2.42,0,0,0,1.92-.79,3.11,3.11,0,0,0,.69-2.14v-7.66a.83.83,0,0,1,.17-.62,1.07,1.07,0,0,1,.67-.14h1.44a1,1,0,0,1,.66.14c.12.1.17.3.17.62v12.18c0,.32-.05.52-.17.62a1,1,0,0,1-.66.14H493a1.09,1.09,0,0,1-.67-.14A.83.83,0,0,1,492.14,622.83Z"/><path class="cls-9" d="M497,628.07h-1.39a.67.67,0,0,1-.52-.15.88.88,0,0,1-.14-.59v-1.12a.9.9,0,0,1,.14-.59c.08-.1.26-.14.52-.14h.86a1.56,1.56,0,0,0,1.19-.4,1.84,1.84,0,0,0,.38-1.3V610.65a.83.83,0,0,1,.17-.62,1.07,1.07,0,0,1,.67-.14h1.44a1,1,0,0,1,.66.14c.12.1.17.3.17.62V624a4.05,4.05,0,0,1-1,3.11A4.47,4.47,0,0,1,497,628.07Zm2.61-19.75a1.89,1.89,0,0,1-1.29-.42,1.42,1.42,0,0,1-.49-1.15v-.55a1.42,1.42,0,0,1,.49-1.17,1.93,1.93,0,0,1,1.29-.4,2,2,0,0,1,1.32.4,1.45,1.45,0,0,1,.49,1.17v.55a1.45,1.45,0,0,1-.49,1.15A1.94,1.94,0,0,1,499.65,608.32Z"/><path class="cls-9" d="M514.25,617.58h-7.59v.13a4.59,4.59,0,0,0,.64,2.78,2.54,2.54,0,0,0,2.13.83c1.28,0,2.05-.46,2.33-1.36a.67.67,0,0,1,.71-.45h1.62a1.21,1.21,0,0,1,.63.13.56.56,0,0,1,.18.47,2.71,2.71,0,0,1-.33,1.17,4.2,4.2,0,0,1-.77,1.11,4.73,4.73,0,0,1-1.89,1.16,7.76,7.76,0,0,1-2.56.41,5.66,5.66,0,0,1-4.28-1.57,6.15,6.15,0,0,1-1.52-4.47v-2a6.68,6.68,0,0,1,1.52-4.7,5.52,5.52,0,0,1,4.31-1.66,5.59,5.59,0,0,1,4.25,1.54,6.37,6.37,0,0,1,1.45,4.53v1.23a.87.87,0,0,1-.15.6A1.06,1.06,0,0,1,514.25,617.58ZM509.41,612a2.58,2.58,0,0,0-2.06.75,4,4,0,0,0-.69,2.44h5.26a4,4,0,0,0-.6-2.42A2.3,2.3,0,0,0,509.41,612Z"/><path class="cls-9" d="M520.45,610.65v1.25a3.71,3.71,0,0,1,3.21-2h.58a.69.69,0,0,1,.52.14.91.91,0,0,1,.13.59V612a.91.91,0,0,1-.13.59.69.69,0,0,1-.52.14h-.73a2.91,2.91,0,0,0-2.18.88,3.25,3.25,0,0,0-.83,2.32v6.87a.86.86,0,0,1-.16.61,1,1,0,0,1-.68.15h-1.44a1.08,1.08,0,0,1-.67-.15.85.85,0,0,1-.17-.61V610.65a.85.85,0,0,1,.17-.61,1.08,1.08,0,0,1,.67-.15h1.39a1.06,1.06,0,0,1,.68.15A.91.91,0,0,1,520.45,610.65Z"/><path class="cls-9" d="M531.64,624a6,6,0,0,1-4.37-1.53,5.73,5.73,0,0,1-1.57-4.28v-2.56a6.12,6.12,0,0,1,1.57-4.47,5.83,5.83,0,0,1,4.37-1.6,6,6,0,0,1,4.37,1.53,5.73,5.73,0,0,1,1.57,4.28v2.56a6.12,6.12,0,0,1-1.57,4.47A5.83,5.83,0,0,1,531.64,624Zm0-2.64q2.82,0,2.82-3.56v-2q0-3.56-2.82-3.56t-2.82,3.56v2Q528.82,621.32,531.64,621.32Z"/><path class="cls-9" d="M554.37,618.1a.67.67,0,0,1,.2-.52,1.07,1.07,0,0,1,.64-.13h1.57a1,1,0,0,1,.66.14.7.7,0,0,1,.17.56,6.83,6.83,0,0,1-.34,2.33,4.83,4.83,0,0,1-1.12,1.75,7,7,0,0,1-5.23,1.78c-2.92,0-4.9-1.18-6-3.56a6.07,6.07,0,0,1-.47-1.67,20,20,0,0,1-.13-2.46V612.5a15.47,15.47,0,0,1,.15-2.34,8.53,8.53,0,0,1,.45-1.79,5.55,5.55,0,0,1,2.33-2.82,7.42,7.42,0,0,1,4-1,6.45,6.45,0,0,1,5,1.75,5.28,5.28,0,0,1,1.06,1.76,7.14,7.14,0,0,1,.32,2.27c0,.28-.05.47-.17.56a1,1,0,0,1-.66.15h-1.63a1.2,1.2,0,0,1-.64-.13.69.69,0,0,1-.19-.53,3.18,3.18,0,0,0-.79-2.34,3.43,3.43,0,0,0-2.43-.72,3.11,3.11,0,0,0-2.69,1.09,6.4,6.4,0,0,0-.79,3.67v4.4a6.36,6.36,0,0,0,.8,3.62,3,3,0,0,0,2.65,1.11,3.43,3.43,0,0,0,2.45-.76A3.28,3.28,0,0,0,554.37,618.1Z"/><path class="cls-9" d="M565.12,624a6,6,0,0,1-4.37-1.53,5.73,5.73,0,0,1-1.57-4.28v-2.56a6.12,6.12,0,0,1,1.57-4.47,5.83,5.83,0,0,1,4.37-1.6,6,6,0,0,1,4.37,1.53,5.73,5.73,0,0,1,1.57,4.28v2.56a6.12,6.12,0,0,1-1.57,4.47A5.83,5.83,0,0,1,565.12,624Zm0-2.64c1.88,0,2.83-1.19,2.83-3.56v-2c0-2.37-1-3.56-2.83-3.56s-2.82,1.19-2.82,3.56v2Q562.3,621.32,565.12,621.32Z"/><path class="cls-9" d="M576.47,610.65v1.25a3.62,3.62,0,0,1,1.32-1.44,3.51,3.51,0,0,1,1.9-.57h.58a.69.69,0,0,1,.52.14,1,1,0,0,1,.13.59V612a1,1,0,0,1-.13.59.69.69,0,0,1-.52.14h-.74a2.89,2.89,0,0,0-2.17.88,3.21,3.21,0,0,0-.84,2.32v6.87a.92.92,0,0,1-.15.61,1.06,1.06,0,0,1-.68.15h-1.44a1.08,1.08,0,0,1-.67-.15.85.85,0,0,1-.17-.61V610.65a.85.85,0,0,1,.17-.61,1.08,1.08,0,0,1,.67-.15h1.39a1.08,1.08,0,0,1,.68.15A.92.92,0,0,1,576.47,610.65Z"/><path class="cls-9" d="M589.05,623.59h-1.46a3.82,3.82,0,0,1-3.17-1.11,4.79,4.79,0,0,1-.86-3v-7h-1.39a.74.74,0,0,1-.52-.14.93.93,0,0,1-.13-.59v-1.1a.91.91,0,0,1,.13-.59.69.69,0,0,1,.52-.14h1.39V606.8a.81.81,0,0,1,.17-.61,1.06,1.06,0,0,1,.67-.15h1.44a1,1,0,0,1,.66.15c.12.09.17.3.17.61v3.09h2.38a.72.72,0,0,1,.53.14,1,1,0,0,1,.13.59v1.1a1,1,0,0,1-.13.59.77.77,0,0,1-.53.14h-2.38V619a2.44,2.44,0,0,0,.33,1.42,1.26,1.26,0,0,0,1.11.46h.94a.77.77,0,0,1,.53.14,1,1,0,0,1,.13.59v1.23a1,1,0,0,1-.12.59C589.51,623.55,589.33,623.59,589.05,623.59Z"/><path class="cls-9" d="M601.63,617.58h-7.58v.13a4.59,4.59,0,0,0,.64,2.78,2.54,2.54,0,0,0,2.13.83c1.27,0,2-.46,2.33-1.36a.66.66,0,0,1,.71-.45h1.62a1.23,1.23,0,0,1,.63.13.56.56,0,0,1,.18.47,2.71,2.71,0,0,1-.33,1.17,4.2,4.2,0,0,1-.77,1.11,4.7,4.7,0,0,1-1.9,1.16,7.66,7.66,0,0,1-2.55.41,5.69,5.69,0,0,1-4.29-1.57,6.19,6.19,0,0,1-1.51-4.47v-2a6.72,6.72,0,0,1,1.51-4.7,6.54,6.54,0,0,1,8.57-.12,6.37,6.37,0,0,1,1.45,4.53v1.23a.87.87,0,0,1-.15.6A1.08,1.08,0,0,1,601.63,617.58ZM596.8,612a2.57,2.57,0,0,0-2.06.75,3.92,3.92,0,0,0-.69,2.44h5.26a3.88,3.88,0,0,0-.61-2.42A2.26,2.26,0,0,0,596.8,612Z"/><path class="cls-9" d="M608.91,605h2a1.12,1.12,0,0,1,.61.12,1.34,1.34,0,0,1,.36.48l3.79,7.72,3.74-7.72a1.34,1.34,0,0,1,.35-.48,1.13,1.13,0,0,1,.62-.12h1.8c.44,0,.65.14.65.42a.8.8,0,0,1-.07.34l-5.6,10.8v6.3a.83.83,0,0,1-.17.62,1.07,1.07,0,0,1-.67.14h-1.52a1,1,0,0,1-.66-.14c-.12-.1-.17-.3-.17-.62v-6.3l-5.6-10.8a.81.81,0,0,1-.08-.34Q608.25,605,608.91,605Z"/><path class="cls-1" d="M713.36,275.18c-1.3,28.83-26.73,35-29.13,34.85l-.65-2.06s25.57-.32,28.38-32.9Z"/><path class="cls-1" d="M693.65,305.1s-9.16-1.29-6.77-6.34c2.3-4.88,6.77,6.34,6.77,6.34"/><path class="cls-1" d="M696.74,303s-6.57-6.5-1.64-9.12c4.77-2.54,1.64,9.12,1.64,9.12"/><path class="cls-1" d="M705.72,295.81s-9.05-1.89-6.33-6.77c2.63-4.72,6.33,6.77,6.33,6.77"/><path class="cls-1" d="M694.13,305.81s5.86,7.16.68,9.25c-5,2-.68-9.25-.68-9.25"/><path class="cls-1" d="M699.34,302.11s8.72,3.08,5.38,7.56c-3.23,4.32-5.38-7.56-5.38-7.56"/><path class="cls-1" d="M705.41,296.5s7.72,5.08,3.39,8.62c-4.18,3.43-3.39-8.62-3.39-8.62"/><path class="cls-10" d="M780.52,237.44s1.93-19.56,17-20.54,28.71,2.63,30.12-.43c0,0-5.91,19.77-20.86,23.76s-21.55,1.67-23.59.73a5.65,5.65,0,0,1-2.64-3.52"/><path class="cls-10" d="M729.14,290.46c.31,0,.62-.08.92-.12h0l-.92.11"/><path class="cls-10" d="M811.63,478.87C805.11,532.1,783,625,788.54,653.1l-19.58,1c26.6-30.13,13.56-120.5-13.06-121.51-76.76-2.89-60.74,125-60.74,125l-17.08-1c8.54-3.51-1.51-42.67-8.53-66.77s-17.57-60.25-1-85.86,71.8-52.22,93.39-71.29c12.5-11.05,18.29-43.33,20.59-60.76,4-30.62-3.52-79.32-11.06-85.85s-14.55-2-26.6,1a136.56,136.56,0,0,1-14.8,3.25c12.54-15.89-5.79-26.86-5.79-26.86,9-1,21.59-20.07,27.11-25.09s24.6-9.55,29.63-4.52c14.07,14.07,32.13,61.76,35.64,91.37s1.51,100.42-5,153.63"/><path class="cls-10" d="M796.15,569.6c16.57,63.27,17,81,17,81l16.07-5.52c-17.07-7-27.48-106.16-27.48-106.16Z"/><path class="cls-11" d="M791.64,441.73c11.71,1,20.88,22.55,14.2,30.06S780,473.88,777,466s-8.77-26.31,14.62-24.22"/><path class="cls-11" d="M761.53,456.81c-5-12.05-31.63-2.51-30.13,11.05s38.74,9.62,30.13-11.05"/><path class="cls-11" d="M790.9,370.07c-7.91,9,10.6,27,21.16,20.37s-7.6-35.74-21.16-20.37"/><path class="cls-11" d="M771.91,486.79c-9.57-3.42-38.66,0-38.66,14.06s18.08,24.1,32.64,18.07,20.08-27.11,6-32.13"/><path class="cls-11" d="M710.21,497c14-1.27,22.1,25.11,4,27.12s-31.63-24.61-4-27.12"/><path class="cls-11" d="M699.18,528.34c-8.57-.36-23.1,13.55-19.08,22.09s16.07,9,22.09,1.51,9-23.1-3-23.6"/><path class="cls-11" d="M678.59,560.46c4.61-.36,8.53,11.55,1.5,12.55s-14.56-11.55-1.5-12.55"/><path class="cls-10" d="M708.26,559.37c-2.5,25.09-3.47,75.23,15,97.88l-15,1.16S700,623.16,697,612.94c0,0-3.89-13.75-1.3-26.13,2.74-13.08,12.56-27.44,12.56-27.44"/><path class="cls-11" d="M678.3,624l15.59-1a246.69,246.69,0,0,0,1.26,34.63l-17.07-1c5-2.05,3.63-16.33.22-32.64"/><path class="cls-11" d="M788.54,653.1l-19.58,1c6.84-7.74,11-19.47,13.09-32.63h6.85c-1.4,13.51-1.74,24.6-.36,31.63"/><path class="cls-11" d="M808.62,621.47l6.84-2.45c3.94,13.48,8.56,23.91,13.75,26.05l-16.07,5.52s0-6.53-4.73-29Z"/><path class="cls-11" d="M708.2,658.41s-5.24-22.58-8.72-36l10.09-.92c2.34,14.06,6.55,27,13.68,35.77Z"/><polygon class="cls-11" points="780.42 200.46 778.84 192.99 750.18 193.57 749.53 200.09 780.42 200.46"/><polygon class="cls-11" points="750.3 192.35 778.59 191.78 777.61 187.18 750.87 186.63 750.3 192.35"/><polygon class="cls-11" points="777.36 185.96 775.92 179.2 751.55 179.84 751 185.42 777.36 185.96"/><polygon class="cls-11" points="780.68 201.68 749.41 201.3 748.62 209.25 781.91 207.5 780.68 201.68"/><path class="cls-11" d="M757.6,167.27c2.17-3.8,13-.62,11.76,6.19s-8.05,8.67-11.14,5.58-3.1-7.44-.62-11.77"/><path class="cls-1" d="M730.06,290.35l-.92.11-.43,0a29.59,29.59,0,0,1-5.4.07h-.12c-.47,0-1-.1-1.42-.16a24,24,0,0,1-3.17-.7l-.51-.16a22.62,22.62,0,0,1-4.36-2c-5-2.86-9-25.09-7-25.6s8.54,2.51,17.57,1.5c0,0,18.33,11,5.79,26.87"/><path class="cls-12" d="M722.8,270.34a41.2,41.2,0,0,1-2.6,4.08,11.72,11.72,0,0,1-3.21,3.12,5.63,5.63,0,0,1-4.09.7,17.19,17.19,0,0,1-4.4-1.77,9.09,9.09,0,0,0,4,3.07,6.42,6.42,0,0,0,2.7.36,6.55,6.55,0,0,0,2.63-.87,9.75,9.75,0,0,0,3.47-3.9,12.81,12.81,0,0,0,1.46-4.79"/><path class="cls-12" d="M709.42,267.85a1.36,1.36,0,1,0,1.36-1.35,1.35,1.35,0,0,0-1.36,1.35"/><path class="cls-11" d="M775.65,420.46c-2.06-5.1,9.21-22.91,18.59-22s21.16,10,11.2,21.51-25.41,11.26-29.79.46"/><path class="cls-11" d="M700.36,479c5-4,13-8.83,20.16-7.15s-3.78,15.13-12.18,16-16.81-1.68-8-8.82"/><path class="cls-11" d="M774.86,285.92c.95-8,11.88-16.45,20.11-11.42s1.37,18.28-5.94,19.65-15.08-.46-14.17-8.23"/><path class="cls-11" d="M810.29,310c2.51-8.45-2.17-13-9.78-10.17s-10.11,22-2.72,22c4.89,0,10.33-4.52,12.5-11.85"/><path class="cls-11" d="M685.55,516c2.51-8.44-2.17-13-9.78-10.15s-10.11,22-2.72,22c4.89,0,10.33-4.52,12.5-11.86"/><path class="cls-11" d="M799.16,501.89c-3-4-17.8,8.09-16.72,16.18s5.39,12.41,9.71,9.71,11.86-19.42,7-25.89"/><path class="cls-11" d="M780.19,543.4c7-2.61,16.46,16,8.23,18.28s-15.54-15.54-8.23-18.28"/><path class="cls-1" d="M788.84,235.07s2.14-7.86,8.27-8.95,9.58-.12,8.94,2.78-13.76,9-17.21,6.17"/><path class="cls-11" d="M788.7,339c4.56-1.14,14.35,1,16.24,8.12,1.48,5.53-7.85,9.47-11.81,8.48-5.9-1.47-10.33-15.13-4.43-16.6"/><path class="cls-12" d="M817.67,335.23l-1-10,.08-3.25L783,325.21c-1.9-1.57-17.71-14.53-22.22-12.6-4.8,2.06,0,13.71,0,13.71l16.31,2.17c-5.63,3.43-16.83,10.76-16.65,14.66.25,5.22,12.84,4.81,12.84,4.81l7.84-14.69Z"/><path class="cls-12" d="M735.29,208.49l13.09,31.72L781,233.87l8.55-29.57Zm30.64,13.63c-.9,3.68-5.89,1.23-5.89,1.23s3.75,5.47-.56,6.37-3.89-4.9-3.89-4.9-2.91,4.23-5.22,2.14c-3.22-2.92.83-5.71,2.58-5.41,0,0-4.81-2.34-3.22-5,1.79-3,5.75,1.53,5.75,1.53s-1.66-5.4,1.69-5.88c5.89-.85,2.56,7,2.56,7,3.29-1.21,6.88.2,6.2,3"/><path class="cls-12" d="M750.12,250a20.44,20.44,0,0,1-.55,4.09,4.47,4.47,0,0,1-1.69,2.68,8.09,8.09,0,0,1-3.31,1.14c-1.31.21-2.71.29-4.21.54A10,10,0,0,0,744.6,260a7,7,0,0,0,4.79-1.06,5.2,5.2,0,0,0,1.72-2.09,5.87,5.87,0,0,0,.5-2.49,7.32,7.32,0,0,0-1.49-4.32"/><path class="cls-12" d="M750.73,254.19a4.49,4.49,0,0,0,1.87.81,4.41,4.41,0,0,0,2,0,5,5,0,0,0-3.91-.78"/><path class="cls-12" d="M750.92,255.91a3,3,0,0,0,1,1.31,3,3,0,0,0,1.53.64,3.28,3.28,0,0,0-2.54-2"/><path class="cls-12" d="M749.24,258.06a3.16,3.16,0,0,0,.88,1.47,3.24,3.24,0,0,0,1.47.88,3.11,3.11,0,0,0-.88-1.48,3.23,3.23,0,0,0-1.47-.87"/><path class="cls-12" d="M747.74,259.06a3.1,3.1,0,0,0,1,3,2.8,2.8,0,0,0-.11-1.61,3,3,0,0,0-.91-1.35"/><path class="cls-12" d="M745.71,259.34a3.11,3.11,0,0,0,.08,3.12,2.78,2.78,0,0,0,.39-1.57,2.88,2.88,0,0,0-.47-1.55"/></g></g></svg>